<svg width="52" height="45" viewBox="0 0 52 45" fill="none" xmlns="http://www.w3.org/2000/svg">
<path d="M50.0282 23.7643C50.0282 23.5006 49.8847 23.2725 49.673 23.1479C50.5406 22.3508 51.0793 21.4289 51.0793 20.1132C51.0793 16.2349 46.3516 15.4711 46.3516 13.6872C46.3516 15.4711 41.6239 16.2349 41.6239 20.1132C41.6239 21.4288 42.1624 22.3507 43.0302 23.1478C42.8185 23.2724 42.6749 23.5004 42.6749 23.7643C42.6749 24.1471 42.9749 24.4568 43.3527 24.4774V28.3093C42.9749 28.3296 42.6749 28.6395 42.6749 29.0223C42.6749 29.4053 42.9749 29.7154 43.3527 29.7358V31.7365H34.49V28.8183H33.4728V26.8091H33.3885C35.1816 25.063 36.2801 23.0334 36.2801 20.2C36.2801 12.2023 27.4318 10.0334 25.7979 6.67102C26.0848 6.74239 26.3805 6.78101 26.6786 6.78101C27.7924 6.78101 28.8326 6.28512 29.5325 5.42052C29.7759 5.11918 29.9699 4.78362 30.1089 4.42289L30.1305 4.36683L30.08 4.39958C29.4913 4.78109 28.8076 4.98282 28.1027 4.98282C27.276 4.98282 26.4657 4.6956 25.8209 4.17415C24.5961 3.18224 24.151 1.52734 24.7136 0.0559269L24.735 0L24.6847 0.0326239C24.3611 0.242616 24.0732 0.502144 23.8291 0.803883C23.2125 1.56555 22.9292 2.52164 23.0319 3.49623C23.1344 4.47082 23.6108 5.34715 24.3726 5.96367C24.6672 6.20216 24.9975 6.38952 25.347 6.52601C23.9024 9.97257 14.7991 12.0879 14.7991 20.1999C14.7991 23.0331 15.8971 25.0629 17.6904 26.809H17.6061V28.8182H16.5891V31.7364H7.72617V29.7268C8.10434 29.7064 8.40528 29.3964 8.40528 29.0137C8.40528 28.6309 8.10434 28.3209 7.72617 28.3006V24.4684C8.10434 24.4481 8.40528 24.1382 8.40528 23.7554C8.40528 23.4918 8.26121 23.2639 8.04908 23.1394C8.91648 22.3425 9.45538 21.4207 9.45538 20.1049C9.45538 16.2267 4.72716 15.4623 4.72716 13.6783C4.72716 15.4622 0 16.2267 0 20.1049C0 21.4208 0.538896 22.3427 1.40656 23.1394C1.19457 23.264 1.05076 23.4918 1.05076 23.7554C1.05076 24.1381 1.35143 24.4479 1.72907 24.4684V28.3006C1.35143 28.3211 1.05076 28.631 1.05076 29.0137C1.05076 29.3963 1.35143 29.7063 1.72907 29.7268V31.7364H1.72495V45H7.61418V39.8864C7.61418 37.7637 10.6555 36.373 10.6555 36.373C10.6555 36.373 13.6966 37.7636 13.6966 39.8864V45H21.275V37.6999C21.275 34.7236 25.5397 32.7737 25.5397 32.7737C25.5397 32.7737 29.8041 34.7237 29.8041 37.6999V45H37.3825V39.8864C37.3825 37.7637 40.4236 36.373 40.4236 36.373C40.4236 36.373 43.4649 37.7636 43.4649 39.8864V45H49.3542V31.7365H49.3503V29.7358C49.728 29.7156 50.0284 29.4054 50.0284 29.0223C50.0284 28.6395 49.728 28.3295 49.3503 28.3093V24.4775C49.7278 24.4571 50.0282 24.1471 50.0282 23.7643Z" fill="black"/>
</svg>
