<svg width="38" height="45" viewBox="0 0 38 45" fill="none" xmlns="http://www.w3.org/2000/svg">
<path d="M37.2253 5.89965L33.4753 2.14962C33.109 1.78339 32.5158 1.78339 32.1496 2.14962C31.7834 2.51586 31.7834 3.10913 32.1496 3.47528L35.2368 6.56243L32.1496 9.64958C31.9738 9.82536 31.875 10.0634 31.875 10.3125V13.1249C31.875 15.1932 33.5568 16.875 35.625 16.875V32.8124C35.625 33.3296 35.2048 33.7499 34.6875 33.7499C34.1702 33.7499 33.7499 33.3297 33.7499 32.8124V30.9374C33.7499 29.3865 32.4884 28.1249 30.9374 28.1249H30V3.75002C30 1.68178 28.3182 0 26.25 0H7.50004C5.43189 0 3.75002 1.68178 3.75002 3.75002V37.5C1.68187 37.5 0 39.1817 0 41.25V44.0625C0 44.5807 0.419325 45 0.937528 45H32.8125C33.3307 45 33.75 44.5807 33.75 44.0625V41.25C33.75 39.1818 32.0682 37.5 30 37.5V30H30.9375C31.4548 30 31.8751 30.4202 31.8751 30.9375V32.8125C31.8751 34.3634 33.1366 35.625 34.6876 35.625C36.2385 35.625 37.5 34.3634 37.5 32.8125V6.56252C37.5 6.31344 37.4011 6.07543 37.2253 5.89965ZM26.25 15.9548C26.25 16.473 25.8307 16.8924 25.3125 16.8924H8.43748C7.91928 16.8924 7.49996 16.473 7.49996 15.9548V4.68746C7.49996 4.16926 7.91928 3.74993 8.43748 3.74993H25.3125C25.8307 3.74993 26.25 4.16926 26.25 4.68746V15.9548Z" fill="black"/>
</svg>
