<svg width="56" height="45" viewBox="0 0 56 45" fill="none" xmlns="http://www.w3.org/2000/svg">
<path d="M28.8557 2.93829C18.627 2.93829 10.335 11.2303 10.335 21.459C10.335 31.6877 18.627 39.9797 28.8557 39.9797C39.0844 39.9797 47.3764 31.6877 47.3764 21.459C47.3764 11.2303 39.0844 2.93829 28.8557 2.93829ZM28.8555 35.5121C21.1067 35.5121 14.8026 29.2079 14.8026 21.4591C14.8026 13.7103 21.1067 7.40613 28.8555 7.40613C36.6044 7.40613 42.9085 13.7103 42.9085 21.4591C42.9085 29.2079 36.6045 35.5121 28.8555 35.5121Z" fill="black"/>
<path d="M28.8554 11.1729C23.1836 11.1729 18.5693 15.7873 18.5693 21.459C18.5693 27.1307 23.1836 31.745 28.8554 31.745C34.5271 31.745 39.1414 27.1307 39.1414 21.459C39.1414 15.7873 34.5272 11.1729 28.8554 11.1729Z" fill="black"/>
<path d="M54.7572 23.0119V0.50592C54.7572 0.288776 54.6186 0.0957719 54.4126 0.0264125C54.2068 -0.0428376 53.9797 0.0271771 53.8483 0.200193C51.0403 3.90333 49.5205 8.42315 49.5205 13.0704V21.3038C49.5205 22.2481 50.286 23.0136 51.2304 23.0136H51.9432C51.2405 30.271 50.7762 40.4212 50.7762 41.6097C50.7762 43.4821 51.9286 44.9999 53.3502 44.9999C54.7718 44.9999 55.9243 43.482 55.9243 41.6097C55.9243 40.4211 55.46 30.2693 54.7572 23.0119Z" fill="black"/>
<path d="M7.47301 18.5506C8.89755 17.6877 9.84968 16.1231 9.84968 14.3359L9.14407 2.79925C9.11709 2.3595 8.7526 2.01663 8.31198 2.01663C7.83542 2.01663 7.45575 2.41586 7.47945 2.89154L7.93831 12.1441C7.93831 12.6642 7.51659 13.0857 6.99667 13.0857C6.47663 13.0857 6.05502 12.664 6.05502 12.1441L5.82575 2.89537C5.81362 2.40657 5.41396 2.01674 4.92495 2.01674C4.43594 2.01674 4.03639 2.40668 4.02415 2.89537L3.79488 12.1441C3.79488 12.6642 3.37316 13.0857 2.85324 13.0857C2.3332 13.0857 1.91159 12.664 1.91159 12.1441L2.37045 2.89154C2.39404 2.41564 2.01415 2.01663 1.53792 2.01663C1.0973 2.01663 0.732806 2.3595 0.705936 2.79925L0 14.3361C0 16.1232 0.952025 17.6877 2.37668 18.5507C3.3038 19.1122 3.82066 20.1621 3.70117 21.2395C2.89693 28.4877 2.35079 40.3208 2.35079 41.6098C2.35079 43.4822 3.50325 45 4.92484 45C6.34644 45 7.49889 43.482 7.49889 41.6098C7.49889 40.3208 6.95265 28.4877 6.14851 21.2395C6.02891 20.1627 6.54632 19.1119 7.47301 18.5506Z" fill="black"/>
</svg>
