<svg width="49" height="45" viewBox="0 0 49 45" fill="none" xmlns="http://www.w3.org/2000/svg">
<path d="M13.9083 8.58746C8.69969 8.58746 8.62809 8.58746 4.29528 8.58746C1.97484 8.58746 0.0777941 10.4752 0.0661284 12.7954L2.2791e-05 25.9247C-0.00490905 26.9117 0.791204 27.7158 1.77805 27.7208C1.78108 27.7208 1.78421 27.7208 1.78734 27.7208C2.7702 27.7208 3.56916 26.9265 3.57428 25.9428L3.64029 12.8135C3.64029 12.812 3.64029 12.8105 3.64029 12.809C3.64257 12.6141 3.8019 12.4575 3.9968 12.4587C4.19171 12.4598 4.34915 12.6183 4.34915 12.8132L4.3499 42.8554C4.3499 44.0398 5.3101 45 6.4945 45C7.6789 45 8.63909 44.0398 8.63909 42.8554V25.714H9.56504V42.8554C9.56504 44.0398 10.5251 44.9999 11.7095 44.9999C12.8939 44.9999 13.854 44.0398 13.854 42.8554C13.854 14.5074 13.8161 30.7187 13.8151 12.8394C13.8151 12.6382 13.9739 12.473 14.175 12.4651C14.376 12.4573 14.5475 12.6094 14.5631 12.8099C14.5631 12.81 14.5631 12.8101 14.5631 12.8101L14.5509 25.932C14.55 26.9189 15.3494 27.7199 16.3364 27.7208C16.337 27.7208 16.3374 27.7208 16.3381 27.7208C17.3242 27.7208 18.1242 26.9217 18.1251 25.9354L18.1372 12.8062C18.1374 12.8025 18.1374 12.7991 18.1373 12.7954C18.1257 10.4752 16.2285 8.58746 13.9083 8.58746Z" fill="black"/>
<path d="M9.10178 7.40667C11.1471 7.40667 12.8051 5.74863 12.8051 3.70334C12.8051 1.65804 11.1471 0 9.10178 0C7.05648 0 5.39844 1.65804 5.39844 3.70334C5.39844 5.74863 7.05648 7.40667 9.10178 7.40667Z" fill="black"/>
<path d="M48.459 23.1496C48.4261 23.0561 45.1763 13.7869 44.6651 12.299C43.8419 9.90388 42.4618 8.68951 40.5632 8.68951C37.9052 8.68951 37.0369 8.68951 34.3839 8.68951C32.4851 8.68951 31.1051 9.90398 30.282 12.299C29.7707 13.7869 26.5209 23.0562 26.4881 23.1496C26.1639 24.0741 26.6507 25.0866 27.5754 25.4107C28.5009 25.7351 29.5125 25.2471 29.8364 24.3236C29.9413 24.0245 31.8965 18.592 32.9873 15.4663C32.8731 16.3994 33.202 14.4631 30.4515 28.6641C30.3333 29.2741 30.8035 29.8382 31.419 29.8382C31.8011 29.8382 32.2595 29.8382 32.7727 29.8382V42.7063C32.7727 43.882 33.7258 44.8352 34.9015 44.8352C36.0773 44.8352 37.0304 43.8821 37.0304 42.7063V29.838C37.3364 29.838 37.6435 29.838 37.9496 29.838V42.7063C37.9496 43.882 38.9027 44.8352 40.0784 44.8352C41.2542 44.8352 42.2073 43.8821 42.2073 42.7063V29.838C42.7205 29.838 43.179 29.838 43.561 29.838C44.1796 29.838 44.6466 29.2735 44.5285 28.6639C41.803 14.5922 42.1033 16.2264 42.0104 15.4661C43.1099 18.616 45.0076 24.029 45.1109 24.3234C45.4354 25.2487 46.4483 25.7345 47.372 25.4105C48.2964 25.0864 48.7831 24.0741 48.459 23.1496Z" fill="black"/>
<path d="M37.4903 7.51784C39.5209 7.51784 41.167 5.87169 41.167 3.84106C41.167 1.81043 39.5209 0.164276 37.4903 0.164276C35.4596 0.164276 33.8135 1.81043 33.8135 3.84106C33.8135 5.87169 35.4596 7.51784 37.4903 7.51784Z" fill="black"/>
<path d="M22.7397 2.38617C21.9839 2.38617 21.3711 2.99886 21.3711 3.75475V41.2445C21.3711 42.0003 21.9838 42.613 22.7397 42.613C23.4956 42.613 24.1083 42.0004 24.1083 41.2445V3.75475C24.1083 2.99886 23.4955 2.38617 22.7397 2.38617Z" fill="black"/>
</svg>
