<svg width="51" height="45" viewBox="0 0 51 45" fill="none" xmlns="http://www.w3.org/2000/svg">
<path d="M48.1474 15.8132C47.9205 15.8132 47.6876 15.8456 47.4551 15.9098L45.0126 16.5825L42.4308 10.2938C41.6572 8.40904 39.37 6.87547 37.3324 6.87547H35.6144V1.66187C35.6144 0.745402 34.869 0 33.9526 0H16.3399C15.4234 0 14.678 0.745402 14.678 1.66187V6.87547H12.9247C10.8872 6.87547 8.59982 8.40882 7.82628 10.2936L5.24795 16.5737L2.83736 15.9096C2.60492 15.8456 2.37181 15.813 2.14514 15.813C0.902282 15.8132 0 16.7629 0 18.0711V19.4077C0 20.9351 1.24263 22.1775 2.76978 22.1775H2.94749L2.57877 23.0753C1.85996 24.8265 1.27498 27.7913 1.27498 29.684V42.2302C1.27498 43.7576 2.51739 45 4.04476 45H7.37447C8.90184 45 10.1442 43.7576 10.1442 42.2302V39.1467H40.113V42.2302C40.113 43.7576 41.3556 45 42.8828 45H46.2118C47.7392 45 48.9816 43.7576 48.9816 42.2302V29.684C48.9816 27.7913 48.3966 24.8265 47.6778 23.0753L47.3091 22.1775H47.5225C49.0499 22.1775 50.2923 20.9351 50.2923 19.4077V18.0711C50.2923 16.7629 49.3902 15.8132 48.1474 15.8132ZM31.8218 2.21626C31.8218 2.1797 31.8518 2.14979 31.8883 2.14979H33.1686C33.2052 2.14979 33.2351 2.1797 33.2351 2.21626V6.82451C33.2351 6.84667 33.2225 6.86328 33.2059 6.87547H31.8511C31.8345 6.86328 31.8218 6.84667 31.8218 6.82451V2.21626ZM22.6395 2.14979H24.1779C24.2145 2.14979 24.2555 2.17749 24.269 2.21161L26.0951 6.80191L27.7689 4.73122C27.7919 4.70286 27.7942 4.65455 27.774 4.6242L26.1675 2.20518C26.1471 2.17461 26.1606 2.14979 26.1972 2.14979H27.62C27.6565 2.14979 27.7022 2.17527 27.7213 2.20629L28.5493 3.54952C28.5684 3.58077 28.5998 3.58077 28.6189 3.54952L29.4476 2.20629C29.4667 2.17505 29.5123 2.14979 29.5489 2.14979H30.9723C31.0089 2.14979 31.0222 2.17461 31.002 2.20518L29.3942 4.6242C29.3738 4.65478 29.3762 4.70286 29.3991 4.73122L31.1035 6.83935C31.115 6.85331 31.1177 6.86639 31.1134 6.87569H29.6027C29.5828 6.86528 29.5648 6.85132 29.5544 6.8347L28.6191 5.33791C28.5996 5.30689 28.5681 5.30689 28.5486 5.33791L27.6153 6.8347C27.6049 6.85132 27.587 6.86528 27.567 6.87569H24.7204C24.7009 6.86417 24.684 6.84822 24.6776 6.82805L24.3638 5.86727C24.3525 5.83248 24.3133 5.80412 24.2768 5.80412H22.5329C22.4963 5.80412 22.4565 5.83226 22.4445 5.86683L22.1064 6.8285C22.0993 6.84844 22.0824 6.86439 22.0627 6.87569H20.6936C20.6827 6.86439 20.678 6.84888 20.6858 6.8296L22.548 2.21183C22.5619 2.17749 22.6029 2.14979 22.6395 2.14979ZM18.1369 6.82451V3.16397C18.1369 3.12741 18.107 3.0975 18.0705 3.0975H16.5316C16.495 3.0975 16.4651 3.06758 16.4651 3.03102V2.21604C16.4651 2.17948 16.495 2.14957 16.5316 2.14957H21.1649C21.2014 2.14957 21.2313 2.17948 21.2313 2.21604V3.03102C21.2313 3.06758 21.2014 3.0975 21.1649 3.0975H19.6171C19.5805 3.0975 19.5506 3.12741 19.5506 3.16397V6.82451C19.5506 6.84667 19.538 6.86328 19.5214 6.87547H18.1662C18.1496 6.86351 18.1369 6.84667 18.1369 6.82451ZM7.20496 20.6337L11.1281 11.0771C11.591 9.9497 12.9668 9.02725 14.1855 9.02725H36.0716C37.2903 9.02725 38.6661 9.9497 39.129 11.0771L43.0521 20.6337C43.515 21.7611 42.8965 22.6836 41.6778 22.6836H8.57922C7.36051 22.6836 6.74208 21.7611 7.20496 20.6337ZM16.0674 32.9408C16.0674 33.5502 15.5688 34.0487 14.9595 34.0487H7.4713C6.86195 34.0487 6.36339 33.5502 6.36339 32.9408V29.3884C6.36339 28.7791 6.86195 28.2805 7.4713 28.2805H14.9595C15.5688 28.2805 16.0674 28.7791 16.0674 29.3884V32.9408ZM43.8218 32.9408C43.8218 33.5502 43.3233 34.0487 42.7139 34.0487H35.2258C34.6164 34.0487 34.1179 33.5502 34.1179 32.9408V29.3884C34.1179 28.7791 34.6164 28.2805 35.2258 28.2805H42.7139C43.3233 28.2805 43.8218 28.7791 43.8218 29.3884V32.9408Z" fill="black"/>
<path d="M23.9659 4.8562C24.0025 4.8562 24.0204 4.82873 24.006 4.79527L23.4538 3.52095C23.4392 3.48749 23.4148 3.48705 23.3998 3.52029L22.815 4.79593C22.7999 4.82917 22.8172 4.8562 22.8538 4.8562H23.9659Z" fill="black"/>
</svg>
