<svg width="30" height="30" viewBox="0 0 30 30" fill="none" xmlns="http://www.w3.org/2000/svg">
<path d="M23.8477 30H6.15234C2.75994 30 0 27.2401 0 23.8477V6.15234C0 2.75994 2.75994 0 6.15234 0H23.8477C27.2401 0 30 2.75994 30 6.15234V23.8477C30 27.2401 27.2401 30 23.8477 30Z" fill="#00C3FF"/>
<path d="M23.8477 0H15V30H23.8477C27.2401 30 30 27.2401 30 23.8477V6.15234C30 2.75994 27.2401 0 23.8477 0Z" fill="#00AAF0"/>
<path d="M9.2372 23.116C8.9662 23.5854 8.47278 23.8481 7.96612 23.8481C7.71774 23.8481 7.46626 23.785 7.23616 23.6522C6.53667 23.2484 6.29614 22.3507 6.69997 21.6512L6.98808 21.1522H10.371L9.2372 23.116Z" fill="white"/>
<path d="M6.47461 19.9804C5.66689 19.9804 5.00977 19.3233 5.00977 18.5156C5.00977 17.7079 5.66689 17.0507 6.47461 17.0507H9.35613L13.3085 10.205L12.2374 8.34968C11.8335 7.65018 12.074 6.75253 12.7735 6.34864H12.7736C13.473 5.94481 14.3707 6.1854 14.7745 6.88483L15 7.27536L15.2255 6.88489C15.6295 6.18534 16.5271 5.94487 17.2264 6.3487C17.5653 6.54434 17.8077 6.86022 17.9089 7.23815C18.0103 7.61608 17.9582 8.01089 17.7626 8.34973L12.739 17.0507H15.9077L17.5992 19.9804H6.47461Z" fill="white"/>
<path d="M23.5254 19.9803H22.3353L23.2999 21.6511C23.7038 22.3506 23.4633 23.2482 22.7638 23.6521C22.5381 23.7824 22.2875 23.849 22.0337 23.849C21.9064 23.849 21.7785 23.8323 21.6522 23.7985C21.2742 23.6972 20.9583 23.4548 20.7627 23.1159L15.6765 14.3064L17.3679 11.3767L20.6439 17.0506H23.5254C24.3331 17.0506 24.9902 17.7078 24.9902 18.5155C24.9902 19.3232 24.3331 19.9803 23.5254 19.9803Z" fill="#F2F2F2"/>
<path d="M15 17.0507V19.9803H17.5992L15.9078 17.0507H15Z" fill="#F2F2F2"/>
<path d="M17.9089 7.23813C17.8076 6.8602 17.5653 6.54426 17.2264 6.34868C16.5271 5.94485 15.6294 6.18526 15.2255 6.88487L15 7.27534V13.1347L17.7626 8.34971C17.9582 8.01087 18.0103 7.61612 17.9089 7.23813Z" fill="#F2F2F2"/>
</svg>
