<svg width="257" height="36" viewBox="0 0 257 36" fill="none" xmlns="http://www.w3.org/2000/svg">
<path d="M245.309 13.8521L244.076 13.7835L240.346 14.2171L231.684 14.3762L195.8 14.9439L157.568 12.8166L131.052 11.3411L123.652 10.9294L124.886 10.998L133.46 12.7573L156.158 16.5848L188.223 18.369L217.822 20.016L233.239 20.8738L235.676 21.6506L233.209 21.5133L224.576 21.0329L181.352 19.91L109.82 15.9297L80.2212 14.2827L73.4381 13.9053L73.4971 12.6264L84.0392 11.9307L122.389 11.5002L164.322 13.8335L191.454 15.3432L197.004 15.652L194.537 15.5148L186.521 15.0687L148.171 15.4992L88.9724 12.2052L76.0227 11.4847L74.7894 11.4161L82.8059 11.8621L124.121 14.1611L183.32 17.4551L232.652 20.2001L252.384 21.2981L254.851 21.4353L251.121 21.8689L223.9 22.2776L158.477 19.9194L122.711 17.9292L107.911 17.1057L123.944 17.9979L159.71 19.988L193.009 21.8409L204.109 22.4585L202.259 22.3556L176.917 22.2277L125.06 20.6244L78.1943 18.0166L48.5951 16.3696L41.812 15.9922L46.7452 16.2667L81.8941 18.2225L137.393 21.3106L184.258 23.9184L208.924 25.2909L212.624 25.4968L207.074 25.188L174.214 27.2062L130.931 27.3622L98.8652 25.578L87.7655 24.9604L86.5323 24.8917L99.4819 25.6123L134.631 27.5681L166.697 29.3524L179.646 30.0729L165.463 29.2837L123.531 26.9505L81.5991 24.6172L54.4665 23.1075L47.6834 22.7301L49.5333 22.833L95.8705 23.488L152.602 26.6448L198.234 29.1839L215.5 30.1446L200.084 29.2868L149.519 26.4732L100.187 23.7282L70.5879 22.0812L64.4214 21.7381L66.2714 21.841L83.6261 20.8834L134.309 21.1391L157.125 22.4086L163.908 22.7861L154.042 22.2371L123.092 23.0794L97.1923 21.6382L89.1759 21.1922L88.5593 21.1579L91.6425 21.3294L112.609 22.496L145.967 23.0699L165.699 24.1679L163.879 23.4255L159.592 22.5459L143.707 18.4564L135.221 14.7787L134.047 13.4311L133.43 13.3968L134.047 13.4311L135.28 13.4997" stroke="#07B4FE" stroke-width="3" stroke-linejoin="round"/>
<path d="M145.766 14.2707L155.632 14.8189L161.093 17.0427L161.71 17.077L156.16 16.7686L134.489 17.485L106.124 15.909L84.5421 14.7099L77.7591 14.333L75.9092 14.2302L76.5258 14.2645L78.9924 14.4015L88.829 15.5882L94.9363 17.2078L96.7862 17.3106L96.1696 17.2764L85.6573 17.3324L64.6328 17.4445L43.6673 16.2797L37.501 15.9371L36.8843 15.9028L37.501 15.9371L42.434 16.2112L59.6112 19.086L74.8795 23.135L79.1664 24.0133L79.783 24.0476L71.7668 23.6022L27.3693 21.1354L7.63706 20.0391L2.73351 19.1265L2.11688 19.0922L9.51647 19.5033L34.7984 20.908L66.8633 22.6896L89.6786 23.9572L95.845 24.2998L85.3032 24.9944L42.6966 23.9074L26.0475 22.9824L22.9643 22.8111L23.581 22.8454L32.2728 22.048L60.6969 22.347L89.062 23.923L98.3115 24.4369L98.9281 24.4711L94.6117 24.2313L81.0458 23.4776L69.9464 22.8609L66.8633 22.6896L69.3298 22.8266L87.3006 21.9047L120.658 22.4778L143.473 23.7454L147.79 23.9853L147.173 23.951L137.924 23.4371L112.025 21.9981L82.4266 20.3536L59.6112 19.086L52.8283 18.7091L51.595 18.6406L62.1368 17.946L91.1185 19.5563L110.851 20.6526L116.4 20.9609L113.934 20.8239L106.534 20.4128L75.086 18.6655L46.7209 17.0895L35.0049 16.4385L32.5384 16.3015L33.8012 15.7315L48.0132 15.881L104.743 19.033L134.342 20.6775L142.358 21.1229L142.975 21.1572L138.658 20.9173L118.926 19.821L91.7941 18.3135L75.7617 17.4227L71.4453 17.1829L70.212 17.1144L73.2952 17.2857L117.693 19.7525L142.975 21.1572L149.141 21.4998L147.908 21.4312L145.441 21.2942L127.5 21.5776L108.325 21.7926L101.542 21.4157L99.6923 21.3129L100.309 21.3472L108.942 21.8268L128.057 22.8889L149.64 24.088L157.039 24.4992L156.422 24.4649L155.806 24.4307L156.422 24.4649L157.656 24.5334L158.272 24.5677L159.506 24.6362L160.739 24.7047L161.972 24.7733L163.205 24.8418L163.822 24.876L166.905 25.0473L174.393 23.543L179.326 23.817L179.943 23.8513L181.176 23.9198L182.469 22.7113L183.702 22.7799L181.852 22.6771L178.152 22.4715L167.61 23.1661L161.415 23.462L159.565 23.3592L163.881 23.599L170.047 23.9416L176.83 24.3185L182.41 23.9883L186.139 23.5554L186.755 23.5897L186.785 22.9512" stroke="#07B4FE" stroke-width="3" stroke-linejoin="round"/>
</svg>
