<svg width="29" height="25" viewBox="0 0 29 25" fill="none" xmlns="http://www.w3.org/2000/svg">
<path d="M11.2647 25C11.5408 25 11.7647 24.7761 11.7647 24.5V16.6765C11.7647 16.4003 11.9886 16.1765 12.2647 16.1765H17.1471C17.4232 16.1765 17.6471 16.4003 17.6471 16.6765V24.5C17.6471 24.7761 17.8709 25 18.1471 25H24.5C24.7761 25 25 24.7761 25 24.5V13.7353C25 13.4592 25.2239 13.2353 25.5 13.2353H28.1088C28.567 13.2353 28.7839 12.6702 28.4433 12.3636L15.0404 0.301035C14.8502 0.129897 14.5616 0.129897 14.3714 0.301034L0.968497 12.3636C0.627888 12.6702 0.844737 13.2353 1.30298 13.2353H3.91176C4.18791 13.2353 4.41176 13.4592 4.41176 13.7353V24.5C4.41176 24.7761 4.63562 25 4.91176 25H11.2647Z" fill="#07B4FE"/>
</svg>
