<svg width="635" height="485" viewBox="0 0 635 485" fill="none" xmlns="http://www.w3.org/2000/svg">
<g clip-path="url(#clip0)">
<path d="M538.957 485C592 485 635 477.928 635 469.204C635 460.48 592 453.408 538.957 453.408C485.915 453.408 442.915 460.48 442.915 469.204C442.915 477.928 485.915 485 538.957 485Z" fill="#3F3D56"/>
<path d="M620.191 411.048C620.002 444.984 599.691 456.72 574.718 456.582C574.138 456.579 573.561 456.569 572.986 456.553C571.829 456.522 570.684 456.463 569.551 456.376C547.022 454.662 529.579 442.109 529.754 410.549C529.936 377.887 572.055 336.9 575.214 333.87C575.217 333.87 575.217 333.87 575.22 333.867C575.34 333.752 575.401 333.694 575.401 333.694C575.401 333.694 620.379 377.114 620.191 411.048Z" fill="#07B4FE"/>
<path d="M573.101 451.382L589.767 428.447L573.046 453.909L572.987 456.553C571.829 456.522 570.684 456.463 569.552 456.376L571.522 422.436L571.51 422.173L571.54 422.124L571.727 418.917L555.248 393.208L571.791 416.514L571.829 417.194L573.317 391.551L559.235 365.001L573.517 387.044L575.214 333.87L575.221 333.693L575.22 333.867L574.754 375.806L589.008 359.257L574.672 379.417L574.17 402.383L587.522 380.415L574.099 405.76L573.82 418.53L593.19 387.955L573.72 422.985L573.101 451.382Z" fill="#3F3D56"/>
<path d="M529.915 153.013C546.633 153.013 560.186 139.509 560.186 122.849C560.186 106.19 546.633 92.6853 529.915 92.6853C513.197 92.6853 499.645 106.19 499.645 122.849C499.645 139.509 513.197 153.013 529.915 153.013Z" fill="#2F2E41"/>
<path d="M525.41 153.871C536.762 153.871 545.966 144.7 545.966 133.387C545.966 122.074 536.762 112.903 525.41 112.903C514.057 112.903 504.854 122.074 504.854 133.387C504.854 144.7 514.057 153.871 525.41 153.871Z" fill="#FFB8B8"/>
<path d="M513.187 144.459C513.187 144.459 522.076 164.943 517.632 167.158C513.187 169.372 510.965 179.337 510.965 179.337L522.632 203.696L538.743 213.661H548.188C548.188 213.661 557.633 171.587 554.299 166.604C550.966 161.622 538.743 158.853 538.743 158.853C538.743 158.853 535.965 152.21 537.077 146.12C538.188 140.031 513.187 144.459 513.187 144.459Z" fill="#FFB8B8"/>
<path d="M499.854 202.589L485.409 190.963C485.409 190.963 459.297 172.694 462.63 185.981C465.964 199.267 480.964 200.375 480.964 200.375L505.965 220.305L499.854 202.589Z" fill="#FFB8B8"/>
<path d="M498.742 263.487C498.742 263.487 492.076 291.167 498.742 328.813L501.52 343.761C501.52 343.761 501.52 355.387 504.298 359.816C504.298 359.816 511.52 425.696 515.409 425.696C519.298 425.696 531.521 423.481 532.632 421.82C533.743 420.16 510.965 260.719 510.965 260.719L498.742 263.487Z" fill="#2F2E41"/>
<path opacity="0.1" d="M498.742 263.487C498.742 263.487 492.076 291.167 498.742 328.813L501.52 343.761C501.52 343.761 501.52 355.387 504.298 359.816C504.298 359.816 511.52 425.696 515.409 425.696C519.298 425.696 531.521 423.481 532.632 421.82C533.743 420.16 510.965 260.719 510.965 260.719L498.742 263.487Z" fill="black"/>
<path d="M516.988 421.274L508.381 453.056C508.381 453.056 491.169 463.145 501.8 465.163C512.431 467.181 523.063 463.145 523.063 463.145L528.125 448.515L533.188 445.489V461.127H534.706L538.25 440.444C538.25 440.444 537.744 429.85 534.706 428.841C531.669 427.832 530.15 422.283 530.15 422.283L516.988 421.274Z" fill="#2F2E41"/>
<path opacity="0.1" d="M516.988 421.274L508.381 453.056C508.381 453.056 491.169 463.145 501.8 465.163C512.431 467.181 523.063 463.145 523.063 463.145L528.125 448.515L533.188 445.489V461.127H534.706L538.25 440.444C538.25 440.444 537.744 429.85 534.706 428.841C531.669 427.832 530.15 422.283 530.15 422.283L516.988 421.274Z" fill="black"/>
<path d="M496.52 262.379C496.52 262.379 500.965 278.988 502.631 281.756C502.631 281.756 504.854 328.813 512.076 344.868L519.854 365.352C519.854 365.352 532.632 425.696 529.299 432.339C529.299 432.339 546.521 436.214 547.632 432.339C547.632 432.339 547.077 400.229 548.743 395.801C550.41 391.372 553.188 367.013 539.854 349.297V295.596C539.854 295.596 560.966 277.881 548.743 255.182C536.521 232.484 496.52 262.379 496.52 262.379Z" fill="#2F2E41"/>
<path d="M530.965 429.017L521.521 463.895C521.521 463.895 502.631 474.967 514.298 477.182C525.965 479.396 537.632 474.967 537.632 474.967L543.188 458.913L548.743 455.591V472.753H550.41L554.299 450.055C554.299 450.055 553.744 438.429 550.41 437.322C547.077 436.214 545.41 430.125 545.41 430.125L530.965 429.017Z" fill="#2F2E41"/>
<path d="M518.84 163.023C518.84 163.023 504.854 171.033 504.854 171.587C504.854 172.14 506.52 180.998 506.52 180.998C506.52 180.998 489.298 198.16 500.965 213.108C500.965 213.108 504.854 215.876 504.854 224.734V233.591C504.854 233.591 472.075 254.075 480.409 260.719C488.742 267.362 497.631 266.255 500.409 270.13C503.187 274.005 519.298 266.808 522.632 265.701C525.965 264.594 526.521 263.487 529.299 267.362C532.076 271.237 547.632 264.594 547.632 264.594C547.632 264.594 557.633 261.826 559.855 261.826C561.227 261.809 562.57 261.427 563.744 260.719L539.854 236.359L551.799 206.187C551.799 206.187 516.521 184.32 516.521 178.23C516.521 172.14 518.84 163.023 518.84 163.023Z" fill="#3F3D56"/>
<path d="M540.41 164.39C540.41 164.39 533.188 174.355 538.743 188.195C544.299 202.035 553.188 218.09 553.188 218.09L539.299 222.519H526.521C526.521 222.519 499.853 218.09 502.631 228.055C505.409 238.02 524.299 233.591 524.299 233.591H535.41C535.41 233.591 560.41 236.36 563.744 231.931C563.744 231.931 572.633 231.377 568.744 213.661C564.855 195.946 553.5 165.62 553.5 165.62L540.41 164.39Z" fill="#FFB8B8"/>
<path d="M521.412 124.205C532.119 124.205 540.799 119.805 540.799 114.376C540.799 108.948 532.119 104.548 521.412 104.548C510.705 104.548 502.025 108.948 502.025 114.376C502.025 119.805 510.705 124.205 521.412 124.205Z" fill="#2F2E41"/>
<path d="M545.688 138.093C547.222 138.093 548.466 135.366 548.466 132.003C548.466 128.64 547.222 125.913 545.688 125.913C544.154 125.913 542.91 128.64 542.91 132.003C542.91 135.366 544.154 138.093 545.688 138.093Z" fill="#FFB8B8"/>
<path d="M543.466 112.627C552.671 112.627 560.133 105.191 560.133 96.0182C560.133 86.8456 552.671 79.4097 543.466 79.4097C534.261 79.4097 526.799 86.8456 526.799 96.0182C526.799 105.191 534.261 112.627 543.466 112.627Z" fill="#2F2E41"/>
<path opacity="0.3" d="M188.355 171.559C226.121 171.559 256.735 141.052 256.735 103.42C256.735 65.7872 226.121 35.2802 188.355 35.2802C150.59 35.2802 119.976 65.7872 119.976 103.42C119.976 141.052 150.59 171.559 188.355 171.559Z" fill="#07B4FE"/>
<path opacity="0.3" d="M55.9472 333.235C78.2629 333.235 96.3534 315.208 96.3534 292.971C96.3534 270.734 78.2629 252.707 55.9472 252.707C33.6314 252.707 15.5409 270.734 15.5409 292.971C15.5409 315.208 33.6314 333.235 55.9472 333.235Z" fill="#07B4FE"/>
<path opacity="0.3" d="M315.169 375.358C360.83 375.358 397.846 338.472 397.846 292.971C397.846 247.47 360.83 210.584 315.169 210.584C269.507 210.584 232.491 247.47 232.491 292.971C232.491 338.472 269.507 375.358 315.169 375.358Z" fill="#07B4FE"/>
<path d="M41.1087 159.84L39.8927 159.582C40.1531 158.365 40.4246 157.152 40.7071 155.943L41.9182 156.224C41.6374 157.426 41.3676 158.631 41.1087 159.84Z" fill="#07B4FE"/>
<path d="M432.587 149.605C431.95 147.245 431.258 144.861 430.532 142.52L431.719 142.154C432.45 144.509 433.147 146.908 433.788 149.283L432.587 149.605ZM43.7318 149.064L42.5322 148.738C43.183 146.356 43.8884 143.951 44.629 141.589L45.8158 141.959C45.0795 144.306 44.3786 146.696 43.7318 149.064V149.064ZM428.218 135.528C427.404 133.215 426.539 130.892 425.646 128.624L426.803 128.171C427.702 130.453 428.573 132.791 429.391 135.119L428.218 135.528ZM48.1628 134.939L46.9905 134.525C47.8185 132.195 48.7009 129.85 49.6133 127.555L50.7692 128.011C49.8622 130.292 48.9853 132.623 48.1628 134.939ZM422.817 121.817C421.839 119.578 420.803 117.323 419.74 115.116L420.86 114.58C421.93 116.801 422.973 119.069 423.957 121.322L422.817 121.817ZM53.6309 121.187L52.4926 120.688C53.4907 118.427 54.5442 116.155 55.6248 113.934L56.7436 114.474C55.6697 116.681 54.6225 118.94 53.6309 121.187ZM416.413 108.532C415.267 106.363 414.067 104.19 412.846 102.073L413.924 101.456C415.153 103.586 416.361 105.773 417.513 107.955L416.413 108.532ZM60.1034 107.882L59.0052 107.301C60.1687 105.119 61.3877 102.931 62.6285 100.798L63.7042 101.419C62.471 103.539 61.2593 105.714 60.1034 107.882ZM409.042 95.7472C407.743 93.672 406.385 91.5916 405.008 89.5636L406.037 88.8691C407.423 90.9099 408.789 93.0032 410.097 95.0909L409.042 95.7472ZM67.5403 95.0942L66.4882 94.4342C67.8071 92.3475 69.1836 90.2556 70.5798 88.217L71.607 88.9151C70.2193 90.9416 68.8509 93.0205 67.5403 95.0942H67.5403ZM400.746 83.5309C399.303 81.5637 397.795 79.5871 396.266 77.6564L397.242 76.8888C398.781 78.8315 400.297 80.8202 401.75 82.7996L400.746 83.5309ZM75.8983 82.8903L74.8979 82.1547C76.3691 80.1672 77.8956 78.1824 79.4351 76.2554L80.4076 77.0267C78.8778 78.9422 77.3608 80.9149 75.8984 82.8903H75.8983ZM391.57 71.9483C389.979 70.083 388.33 68.221 386.67 66.4141L387.586 65.5775C389.257 67.3953 390.916 69.2688 392.517 71.1456L391.57 71.9483ZM85.1291 71.3325L84.1851 70.5261C85.7944 68.656 87.462 66.7883 89.1418 64.975L90.0554 65.8152C88.386 67.6176 86.7284 69.4739 85.1291 71.3325ZM381.567 61.0614C379.839 59.3134 378.057 57.5761 376.271 55.8974L377.125 54.9961C378.921 56.6853 380.714 58.4333 382.452 60.1921L381.567 61.0614ZM95.1803 60.4822L94.2982 59.6093C96.0441 57.8574 97.8438 56.1167 99.6471 54.4356L100.496 55.3403C98.704 57.0111 96.9156 58.7412 95.1803 60.4822ZM370.788 50.9291C368.938 49.313 367.033 47.7094 365.126 46.1629L365.91 45.2022C367.829 46.7581 369.746 48.3715 371.607 49.9975L370.788 50.9291ZM105.997 50.3956L105.181 49.4606C107.049 47.8422 108.971 46.2376 110.894 44.6914L111.674 45.6556C109.764 47.1921 107.854 48.787 105.997 50.3956ZM359.291 41.6059C357.331 40.1317 355.313 38.6711 353.293 37.2647L354.004 36.249C356.038 37.6642 358.068 39.1339 360.04 40.6169L359.291 41.6059ZM117.521 41.1265L116.776 40.1344C118.759 38.656 120.793 37.1963 122.821 35.7958L123.529 36.8145C121.513 38.2059 119.491 39.6568 117.521 41.1265ZM347.137 33.145C345.069 31.8157 342.948 30.506 340.832 29.2532L341.467 28.1879C343.596 29.4489 345.73 30.7665 347.811 32.104L347.137 33.145ZM129.69 32.7258L129.02 31.6824C131.103 30.3543 133.238 29.0476 135.366 27.7984L135.997 28.8661C133.882 30.1074 131.76 31.4062 129.69 32.7258V32.7258ZM334.386 25.5949C332.23 24.4226 330.016 23.272 327.808 22.1753L328.363 21.0664C330.585 22.1701 332.812 23.3277 334.981 24.5073L334.386 25.5949ZM142.441 25.2404L141.849 24.1504C144.023 22.9798 146.248 21.8335 148.461 20.7437L149.012 21.8544C146.811 22.9375 144.601 24.0769 142.441 25.2404ZM321.106 18.9991C318.868 17.9882 316.575 17.004 314.29 16.073L314.761 14.9261C317.06 15.8628 319.367 16.8537 321.62 17.8709L321.106 18.9991ZM155.703 18.7132L155.194 17.5832C157.444 16.5772 159.746 15.5978 162.037 14.6729L162.504 15.8211C160.227 16.7406 157.939 17.7136 155.703 18.7132ZM307.368 13.3998C305.052 12.5544 302.69 11.7417 300.349 10.984L300.733 9.80564C303.089 10.5682 305.465 11.386 307.795 12.2366L307.368 13.3998ZM169.405 13.1815L168.981 12.017C171.303 11.1776 173.67 10.3713 176.017 9.61963L176.397 10.7992C174.065 11.546 171.713 12.3476 169.405 13.1815ZM293.243 8.82928C290.876 8.15904 288.466 7.52473 286.08 6.94341L286.375 5.7402C288.775 6.32487 291.201 6.96337 293.583 7.63757L293.243 8.82928ZM183.492 8.6711L183.156 7.47816C185.535 6.81244 187.962 6.18119 190.369 5.60198L190.661 6.80639C188.268 7.38199 185.856 8.0093 183.492 8.6711ZM278.852 5.32341C276.444 4.83039 273.993 4.37549 271.568 3.97108L271.773 2.74913C274.214 3.15594 276.679 3.61388 279.102 4.10991L278.852 5.32341ZM197.893 5.20695L197.647 3.99283C200.074 3.50314 202.541 3.05246 204.979 2.65321L205.18 3.87578C202.757 4.27234 200.305 4.72029 197.893 5.20696V5.20695ZM264.24 2.88674C261.797 2.57127 259.32 2.29754 256.876 2.0722L256.991 0.838748C259.449 1.0653 261.942 1.34084 264.399 1.65813L264.24 2.88674ZM212.512 2.81324L212.356 1.58402C214.806 1.2746 217.299 1.00601 219.767 0.785519L219.878 2.01957C217.425 2.23857 214.947 2.50564 212.512 2.81325V2.81324ZM249.487 1.52655C247.037 1.39014 244.547 1.29698 242.084 1.2495L242.108 0.0106005C244.585 0.0586945 247.092 0.152453 249.557 0.289469L249.487 1.52655ZM227.268 1.49478L227.203 0.257691C229.671 0.127334 232.178 0.0408279 234.653 0L234.674 1.2389C232.214 1.27914 229.722 1.36535 227.268 1.49478Z" fill="#07B4FE"/>
<path d="M435.209 160.527C434.954 159.317 434.689 158.11 434.413 156.908L435.625 156.631C435.903 157.841 436.17 159.055 436.426 160.273L435.209 160.527Z" fill="#07B4FE"/>
<path d="M436.886 241.304L435.666 241.064C435.906 239.854 436.135 238.64 436.353 237.422L437.577 237.639C437.358 238.865 437.127 240.086 436.886 241.304Z" fill="#07B4FE"/>
<path d="M238.086 403.852C236.735 403.852 235.387 403.839 234.042 403.813L234.066 402.574C236.524 402.622 238.999 402.625 241.459 402.585L241.479 403.824C240.35 403.843 239.22 403.852 238.086 403.852ZM248.913 403.57L248.847 402.332C251.306 402.203 253.786 402.028 256.219 401.811L256.33 403.045C253.882 403.263 251.386 403.44 248.913 403.57ZM226.611 403.534C224.144 403.397 221.649 403.213 219.196 402.987L219.31 401.753C221.748 401.978 224.228 402.161 226.681 402.298L226.611 403.534ZM263.724 402.252L263.568 401.023C266.015 400.714 268.476 400.359 270.882 399.966L271.083 401.189C268.662 401.584 266.186 401.941 263.724 402.252V402.252ZM211.804 402.17C209.348 401.852 206.873 401.487 204.448 401.083L204.653 399.861C207.063 400.262 209.522 400.625 211.964 400.941L211.804 402.17ZM278.399 399.857L278.153 398.643C280.566 398.157 282.993 397.622 285.37 397.052L285.66 398.257C283.27 398.83 280.827 399.368 278.399 399.857ZM197.137 399.727C194.711 399.231 192.27 398.685 189.88 398.103L190.175 396.9C192.55 397.477 194.976 398.021 197.387 398.514L197.137 399.727ZM292.858 396.39L292.523 395.197C294.881 394.539 297.263 393.827 299.602 393.08L299.981 394.26C297.628 395.012 295.231 395.729 292.858 396.39V396.39ZM182.689 396.214C180.312 395.543 177.912 394.816 175.554 394.055L175.937 392.876C178.281 393.633 180.666 394.355 183.028 395.023L182.689 396.214ZM307.002 391.876L306.579 390.711C308.876 389.882 311.193 388.999 313.466 388.085L313.931 389.233C311.645 390.154 309.313 391.043 307.002 391.876L307.002 391.876ZM168.506 391.634C166.182 390.788 163.843 389.887 161.554 388.955L162.024 387.808C164.299 388.734 166.623 389.63 168.933 390.47L168.506 391.634ZM320.759 386.339L320.252 385.208C322.489 384.21 324.736 383.159 326.93 382.082L327.479 383.194C325.272 384.277 323.011 385.335 320.759 386.339L320.759 386.339ZM154.709 386.023C152.456 385.008 150.192 383.938 147.979 382.842L148.532 381.732C150.732 382.822 152.982 383.886 155.221 384.894L154.709 386.023ZM334.08 379.803L333.49 378.713C335.651 377.553 337.815 376.339 339.923 375.106L340.553 376.174C338.432 377.415 336.254 378.636 334.08 379.803H334.08ZM141.372 379.415C139.2 378.238 137.022 377.004 134.898 375.749L135.532 374.684C137.643 375.931 139.808 377.157 141.966 378.327L141.372 379.415ZM346.889 372.309L346.221 371.265C348.279 369.957 350.349 368.588 352.373 367.195L353.079 368.215C351.043 369.616 348.96 370.993 346.889 372.309H346.889ZM128.565 371.85C126.489 370.519 124.408 369.13 122.38 367.723L123.091 366.706C125.106 368.105 127.174 369.485 129.237 370.808L128.565 371.85ZM359.117 363.897L358.374 362.904C360.335 361.447 362.3 359.93 364.214 358.396L364.993 359.362C363.068 360.905 361.09 362.431 359.117 363.897L359.117 363.897ZM116.353 363.373C114.384 361.897 112.411 360.361 110.49 358.808L111.273 357.846C113.183 359.39 115.144 360.916 117.1 362.384L116.353 363.373ZM370.699 354.614L369.886 353.678C371.739 352.079 373.588 350.423 375.382 348.756L376.23 349.662C374.425 351.339 372.564 353.005 370.7 354.614L370.699 354.614ZM104.799 354.031C102.938 352.411 101.084 350.736 99.2885 349.053L100.14 348.151C101.925 349.823 103.767 351.488 105.618 353.099L104.799 354.031ZM381.578 344.512L380.697 343.637C382.435 341.901 384.158 340.115 385.82 338.329L386.732 339.171C385.06 340.968 383.325 342.766 381.578 344.512ZM93.9643 343.879C92.232 342.133 90.5059 340.328 88.8334 338.515L89.7488 337.677C91.411 339.479 93.1266 341.272 94.8485 343.008L93.9643 343.879ZM391.689 333.643L390.747 332.835C392.351 330.979 393.94 329.072 395.47 327.165L396.441 327.939C394.901 329.857 393.302 331.777 391.689 333.643ZM83.9034 332.969C82.3029 331.101 80.7139 329.177 79.1805 327.249L80.1548 326.48C81.6788 328.395 83.2581 330.308 84.8492 332.165L83.9034 332.969ZM400.982 322.064L399.983 321.326C401.45 319.354 402.896 317.335 404.279 315.327L405.303 316.027C403.913 318.048 402.459 320.079 400.982 322.064ZM74.6712 321.361C73.2103 319.381 71.767 317.347 70.381 315.316L71.4094 314.619C72.7865 316.638 74.221 318.659 75.6728 320.628L74.6712 321.361ZM409.402 309.834L408.352 309.171C409.663 307.109 410.956 304.99 412.195 302.872L413.27 303.497C412.023 305.627 410.722 307.76 409.402 309.834ZM66.317 309.118C65.007 307.039 63.7173 304.906 62.4843 302.779L63.5607 302.159C64.7863 304.273 66.0681 306.392 67.3703 308.46L66.317 309.118ZM416.902 297.019L415.806 296.435C416.968 294.268 418.102 292.059 419.176 289.868L420.293 290.411C419.213 292.616 418.072 294.839 416.902 297.019ZM58.8881 296.303C57.7343 294.133 56.6058 291.912 55.5341 289.704L56.6535 289.164C57.7186 291.359 58.8401 293.566 59.9869 295.724L58.8881 296.303ZM423.437 283.683L422.301 283.181C423.295 280.946 424.263 278.658 425.176 276.381L426.331 276.84C425.411 279.132 424.438 281.434 423.437 283.683V283.683ZM52.4265 282.985C51.4354 280.736 50.4745 278.439 49.5699 276.161L50.7261 275.705C51.6248 277.97 52.5801 280.252 53.5647 282.487L52.4265 282.985ZM428.969 269.895L427.798 269.477C428.627 267.167 429.422 264.813 430.163 262.48L431.348 262.854C430.604 265.2 429.803 267.569 428.969 269.895ZM46.9693 269.238C46.1467 266.919 45.3563 264.553 44.6205 262.205L45.8073 261.836C46.5386 264.169 47.3238 266.52 48.1415 268.825L46.9693 269.238ZM433.463 255.728L432.264 255.398C432.915 253.05 433.532 250.649 434.098 248.263L435.308 248.549C434.738 250.949 434.118 253.365 433.463 255.728ZM42.5343 255.093C41.8872 252.723 41.2753 250.309 40.7156 247.916L41.9267 247.635C42.4827 250.013 43.0907 252.413 43.7339 254.767L42.5343 255.093Z" fill="#07B4FE"/>
<path d="M39.136 240.536C38.8992 239.318 38.6734 238.095 38.4585 236.869L39.6836 236.656C39.8966 237.875 40.121 239.089 40.3568 240.3L39.136 240.536Z" fill="#07B4FE"/>
<path d="M339.577 241.87L338.421 241.415C338.872 240.278 339.311 239.114 339.725 237.955L340.896 238.371C340.477 239.543 340.034 240.721 339.577 241.87Z" fill="#07B4FE"/>
<path d="M238.086 310.625C236.597 310.625 235.094 310.595 233.619 310.536L233.67 309.298C236.116 309.397 238.617 309.413 241.072 309.346L241.106 310.585C240.102 310.612 239.096 310.625 238.086 310.625ZM248.578 310.128L248.46 308.896C250.908 308.663 253.378 308.343 255.8 307.944L256.003 309.166C253.553 309.57 251.054 309.894 248.578 310.128ZM226.153 309.982C223.68 309.714 221.187 309.357 218.743 308.921L218.962 307.702C221.378 308.132 223.843 308.486 226.288 308.75L226.153 309.982ZM263.343 307.697L263.056 306.492C265.45 305.925 267.851 305.27 270.194 304.543L270.564 305.726C268.194 306.461 265.765 307.124 263.343 307.697V307.697ZM211.422 307.354C209.008 306.75 206.587 306.054 204.225 305.287L204.611 304.109C206.945 304.867 209.339 305.555 211.725 306.153L211.422 307.354ZM277.632 303.263L277.18 302.108C279.468 301.221 281.757 300.242 283.981 299.198L284.511 300.318C282.261 301.375 279.946 302.365 277.632 303.263V303.263ZM197.19 302.728C194.883 301.799 192.582 300.777 190.349 299.692L190.894 298.579C193.101 299.651 195.376 300.661 197.656 301.58L197.19 302.728ZM291.171 296.91L290.565 295.828C292.713 294.633 294.845 293.35 296.902 292.014L297.58 293.052C295.5 294.403 293.344 295.701 291.171 296.91ZM183.733 296.194C181.579 294.957 179.44 293.631 177.376 292.251L178.069 291.223C180.109 292.587 182.223 293.898 184.354 295.121L183.733 296.194ZM303.71 288.766L302.961 287.778C304.926 286.3 306.863 284.738 308.716 283.137L309.531 284.073C307.656 285.693 305.698 287.272 303.71 288.766ZM171.304 287.883C169.336 286.363 167.398 284.758 165.546 283.112L166.373 282.188C168.204 283.814 170.12 285.401 172.066 286.905L171.304 287.883ZM315.016 278.995L314.14 278.117C315.883 276.389 317.588 274.579 319.208 272.739L320.142 273.556C318.505 275.417 316.78 277.247 315.016 278.995V278.995ZM160.128 277.963C158.39 276.194 156.69 274.341 155.075 272.457L156.021 271.653C157.617 273.516 159.298 275.347 161.016 277.097L160.128 277.963ZM324.884 267.781L323.896 267.03C325.386 265.084 326.827 263.06 328.182 261.014L329.22 261.697C327.85 263.766 326.392 265.813 324.884 267.781ZM150.411 266.62C148.929 264.629 147.498 262.563 146.158 260.479L147.206 259.811C148.53 261.871 149.944 263.914 151.41 265.882L150.411 266.62ZM333.125 255.331L332.043 254.721C333.252 252.59 334.402 250.389 335.462 248.178L336.584 248.712C335.512 250.948 334.348 253.175 333.125 255.331H333.125ZM142.339 254.063C141.143 251.888 140.01 249.646 138.97 247.4L140.099 246.881C141.127 249.101 142.247 251.317 143.429 253.468L142.339 254.063Z" fill="#07B4FE"/>
<path d="M136.054 240.48C135.614 239.325 135.187 238.141 134.784 236.962L135.961 236.563C136.359 237.729 136.782 238.899 137.216 240.04L136.054 240.48Z" fill="#07B4FE"/>
<path d="M137.975 161.849L136.822 161.387C137.287 160.232 137.778 159.074 138.28 157.943L139.417 158.445C138.921 159.563 138.436 160.708 137.975 161.849Z" fill="#07B4FE"/>
<path d="M142.684 151.734L141.585 151.155C142.76 148.941 144.028 146.74 145.356 144.612L146.411 145.266C145.099 147.37 143.846 149.546 142.684 151.734ZM332.507 149.929C331.305 147.765 330.01 145.614 328.657 143.534L329.7 142.86C331.068 144.964 332.379 147.14 333.594 149.329L332.507 149.929ZM150.579 139.072L149.571 138.347C151.043 136.316 152.604 134.311 154.212 132.387L155.168 133.18C153.578 135.082 152.034 137.064 150.579 139.072ZM324.371 137.42C322.88 135.442 321.298 133.489 319.672 131.616L320.612 130.805C322.257 132.7 323.857 134.675 325.365 136.676L324.371 137.42ZM160.153 127.617L159.254 126.76C160.992 124.951 162.815 123.179 164.673 121.493L165.51 122.41C163.673 124.076 161.87 125.828 160.153 127.617ZM314.583 126.148C312.831 124.392 310.995 122.674 309.126 121.043L309.946 120.111C311.836 121.761 313.692 123.499 315.464 125.275L314.583 126.148ZM171.216 117.582L170.444 116.611C172.416 115.056 174.467 113.551 176.539 112.138L177.241 113.16C175.193 114.557 173.166 116.045 171.216 117.582ZM303.33 116.325C301.354 114.827 299.298 113.377 297.221 112.017L297.903 110.982C300.005 112.357 302.084 113.823 304.083 115.339L303.33 116.325ZM183.559 109.164L182.93 108.096C185.097 106.828 187.337 105.62 189.587 104.505L190.14 105.615C187.916 106.716 185.702 107.911 183.559 109.164ZM290.826 108.142C288.657 106.928 286.42 105.776 284.178 104.718L284.71 103.598C286.978 104.668 289.241 105.834 291.435 107.062L290.826 108.142ZM196.953 102.53L196.479 101.385C198.801 100.429 201.188 99.5429 203.572 98.7513L203.965 99.9267C201.608 100.709 199.249 101.585 196.953 102.53ZM277.306 101.764C274.99 100.863 272.614 100.033 270.245 99.2961L270.615 98.1134C273.012 98.8584 275.415 99.6983 277.758 100.61L277.306 101.764ZM211.142 97.8185L210.833 96.6186C213.265 95.9953 215.752 95.4493 218.225 94.9962L218.45 96.2145C216.006 96.6625 213.547 97.2021 211.142 97.8185ZM263.028 97.3255C260.611 96.7553 258.142 96.2629 255.69 95.8619L255.892 94.6393C258.372 95.0449 260.869 95.5431 263.314 96.1199L263.028 97.3255ZM225.853 95.1214L225.713 93.8904C228.202 93.6103 230.741 93.4128 233.26 93.303L233.314 94.5407C230.824 94.6493 228.314 94.8447 225.853 95.1214ZM248.268 94.9103C245.8 94.6798 243.286 94.5319 240.798 94.4708L240.828 93.2325C243.346 93.2942 245.888 93.4437 248.384 93.6769L248.268 94.9103Z" fill="#07B4FE"/>
<path d="M337.426 159.989C336.945 158.857 336.438 157.721 335.92 156.613L337.047 156.09C337.571 157.211 338.084 158.361 338.571 159.505L337.426 159.989Z" fill="#07B4FE"/>
<path d="M353.475 201.765C351.842 201.759 350.257 202.318 348.991 203.346C347.726 204.374 346.857 205.807 346.534 207.402C346.21 208.997 346.453 210.655 347.219 212.092C347.985 213.529 349.228 214.656 350.736 215.282C352.243 215.907 353.922 215.992 355.485 215.522C357.048 215.052 358.399 214.056 359.308 212.704C360.217 211.352 360.626 209.728 360.467 208.108C360.308 206.489 359.589 204.974 358.435 203.824C357.786 203.17 357.014 202.651 356.162 202.298C355.311 201.944 354.397 201.763 353.475 201.765Z" fill="#3F3D56"/>
<path d="M325.35 201.765C323.718 201.759 322.133 202.318 320.867 203.346C319.601 204.374 318.733 205.807 318.409 207.402C318.086 208.997 318.328 210.655 319.095 212.092C319.861 213.529 321.104 214.656 322.611 215.282C324.119 215.907 325.797 215.992 327.361 215.522C328.924 215.052 330.275 214.056 331.184 212.704C332.092 211.352 332.502 209.728 332.343 208.108C332.183 206.489 331.465 204.974 330.31 203.824C329.661 203.172 328.888 202.654 328.037 202.301C327.186 201.947 326.273 201.765 325.35 201.765Z" fill="#3F3D56"/>
<path d="M339.413 162.887C332.405 162.887 325.554 164.957 319.727 168.837C313.9 172.717 309.358 178.231 306.677 184.683C303.995 191.135 303.293 198.234 304.66 205.084C306.027 211.933 309.402 218.224 314.358 223.162C319.313 228.1 325.627 231.463 332.5 232.825C339.373 234.188 346.498 233.488 352.972 230.816C359.447 228.144 364.981 223.618 368.874 217.812C372.768 212.005 374.846 205.179 374.846 198.195C374.846 188.831 371.113 179.85 364.468 173.228C357.823 166.607 348.81 162.887 339.413 162.887ZM346.298 177.61C346.749 177.606 347.196 177.691 347.613 177.861C348.03 178.031 348.409 178.282 348.727 178.599C349.046 178.917 349.298 179.294 349.468 179.71C349.639 180.126 349.724 180.571 349.72 181.02C349.724 181.7 349.525 182.366 349.149 182.934C348.772 183.501 348.234 183.944 347.604 184.207C346.974 184.469 346.28 184.539 345.61 184.407C344.941 184.275 344.325 183.948 343.842 183.467C343.36 182.986 343.031 182.373 342.899 181.705C342.767 181.038 342.837 180.346 343.1 179.718C343.363 179.091 343.808 178.555 344.378 178.18C344.947 177.804 345.616 177.606 346.298 177.61ZM325.351 218.78C323.364 218.781 321.421 218.195 319.769 217.095C318.116 215.996 316.828 214.433 316.067 212.604C315.306 210.775 315.107 208.762 315.494 206.82C315.882 204.879 316.838 203.095 318.243 201.695C319.648 200.295 321.438 199.341 323.387 198.955C325.336 198.569 327.356 198.768 329.191 199.526C331.027 200.284 332.595 201.568 333.698 203.215C334.802 204.861 335.39 206.797 335.389 208.777C335.38 211.427 334.319 213.966 332.439 215.84C330.558 217.714 328.01 218.771 325.35 218.78H325.351ZM341.134 198.838V208.488C341.134 208.942 340.953 209.379 340.63 209.701C340.307 210.022 339.869 210.203 339.413 210.203C338.956 210.203 338.518 210.022 338.195 209.701C337.873 209.379 337.691 208.942 337.691 208.488V201.422C337.691 200.018 335.97 199.707 331.074 196.898C330.44 196.523 329.084 195.858 329.084 193.992C329.095 193.093 329.453 192.233 330.085 191.591L337.799 184.183C338.165 183.813 338.612 183.534 339.104 183.366C339.597 183.198 340.122 183.146 340.638 183.215C341.155 183.283 341.648 183.47 342.079 183.761C342.511 184.052 342.868 184.438 343.124 184.89L346.298 191.334H351.463C351.919 191.334 352.356 191.516 352.678 191.837C353 192.159 353.181 192.595 353.181 193.049C353.181 193.503 353 193.939 352.678 194.261C352.356 194.582 351.919 194.764 351.463 194.764H345.287C344.136 194.764 343.211 192.298 341.199 189.243L335.937 194.764C337.863 196.265 341.134 197.423 341.134 198.838H341.134ZM353.475 218.769C351.489 218.769 349.549 218.183 347.898 217.083C346.247 215.984 344.96 214.422 344.201 212.594C343.441 210.766 343.242 208.755 343.629 206.815C344.017 204.874 344.973 203.092 346.377 201.693C347.781 200.294 349.569 199.342 351.516 198.956C353.464 198.57 355.482 198.768 357.316 199.525C359.15 200.282 360.718 201.564 361.821 203.209C362.924 204.854 363.513 206.788 363.513 208.766C363.505 211.417 362.444 213.956 360.564 215.83C358.683 217.704 356.134 218.761 353.475 218.769H353.475Z" fill="#3F3D56"/>
<path d="M440.117 162.887C433.109 162.887 426.259 164.957 420.432 168.837C414.605 172.717 410.063 178.231 407.381 184.683C404.7 191.135 403.998 198.234 405.365 205.084C406.732 211.933 410.107 218.224 415.062 223.162C420.018 228.1 426.331 231.463 433.205 232.825C440.078 234.188 447.203 233.488 453.677 230.816C460.152 228.144 465.686 223.618 469.579 217.812C473.472 212.005 475.551 205.179 475.551 198.195C475.551 188.831 471.817 179.85 465.172 173.228C458.527 166.607 449.515 162.887 440.117 162.887ZM430.725 188.128C431.809 188.153 432.861 188.496 433.751 189.115C434.64 189.733 435.326 190.599 435.724 191.604C436.121 192.61 436.212 193.71 435.985 194.766C435.758 195.823 435.224 196.789 434.448 197.544C433.672 198.3 432.69 198.81 431.625 199.012C430.56 199.213 429.458 199.097 428.459 198.678C427.46 198.258 426.607 197.555 426.007 196.654C425.407 195.754 425.087 194.698 425.087 193.617C425.095 192.888 425.247 192.167 425.535 191.496C425.822 190.825 426.24 190.217 426.764 189.708C427.287 189.198 427.907 188.796 428.586 188.525C429.266 188.254 429.993 188.119 430.725 188.128V188.128ZM460.775 211.918H457.02V206.429H423.215V211.918H419.46V184.472H423.215V200.94H438.235V188.128H453.265C454.241 188.117 455.209 188.298 456.114 188.66C457.02 189.023 457.845 189.559 458.542 190.239C459.24 190.919 459.796 191.729 460.179 192.623C460.562 193.518 460.764 194.478 460.775 195.451V211.918Z" fill="#3F3D56"/>
<path d="M47.9137 188.76H37.3698C37.2558 188.761 37.1465 188.806 37.0659 188.886C36.9852 188.967 36.9398 189.076 36.9395 189.189V204.199C36.9398 204.313 36.9852 204.422 37.0659 204.502C37.1465 204.582 37.2558 204.628 37.3698 204.628H47.9137C48.3698 204.627 48.8069 204.445 49.1294 204.124C49.452 203.803 49.6338 203.367 49.6351 202.912V190.476C49.6338 190.021 49.452 189.586 49.1294 189.264C48.8069 188.943 48.3698 188.762 47.9137 188.76Z" fill="#3F3D56"/>
<path d="M45.5467 207.844C45.0549 207.884 44.5848 208.064 44.1919 208.361C43.7991 208.659 43.4999 209.062 43.3297 209.524C43.1596 209.985 43.1255 210.486 43.2316 210.966C43.3377 211.446 43.5794 211.886 43.9284 212.234C44.2773 212.581 44.7188 212.822 45.2007 212.928C45.6826 213.034 46.1849 213 46.648 212.83C47.1112 212.661 47.516 212.363 47.8147 211.971C48.1133 211.58 48.2932 211.111 48.3333 210.621C48.3629 210.249 48.3111 209.875 48.1815 209.525C48.0519 209.174 47.8476 208.856 47.5827 208.592C47.3178 208.328 46.9986 208.125 46.6471 207.996C46.2956 207.866 45.9202 207.815 45.5467 207.844Z" fill="#3F3D56"/>
<path d="M24.9001 207.844C24.4083 207.884 23.9382 208.064 23.5453 208.361C23.1525 208.659 22.8533 209.062 22.6831 209.524C22.513 209.985 22.4789 210.486 22.585 210.966C22.6911 211.446 22.9328 211.886 23.2818 212.234C23.6307 212.581 24.0722 212.822 24.5541 212.928C25.036 213.034 25.5382 213 26.0014 212.83C26.4646 212.661 26.8694 212.363 27.168 211.971C27.4667 211.58 27.6466 211.111 27.6867 210.621C27.7163 210.249 27.6645 209.875 27.5349 209.525C27.4053 209.174 27.201 208.856 26.9361 208.592C26.6712 208.328 26.352 208.125 26.0005 207.996C25.649 207.866 25.2736 207.815 24.9001 207.844Z" fill="#3F3D56"/>
<path d="M33.4965 188.76H22.9742C22.5124 188.762 22.0701 188.946 21.7436 189.271C21.4171 189.596 21.2329 190.037 21.2312 190.497V202.891C21.2329 203.351 21.4171 203.792 21.7436 204.117C22.0701 204.443 22.5124 204.626 22.9742 204.628H33.4965C33.6106 204.628 33.7198 204.582 33.8005 204.502C33.8811 204.422 33.9265 204.313 33.9269 204.199V189.189C33.9265 189.076 33.8811 188.967 33.8005 188.886C33.7198 188.806 33.6106 188.761 33.4965 188.76Z" fill="#3F3D56"/>
<path d="M35.4332 162.887C28.4252 162.887 21.5745 164.957 15.7476 168.837C9.92062 172.717 5.37906 178.231 2.69721 184.683C0.0153533 191.135 -0.686343 198.234 0.680854 205.084C2.04805 211.933 5.42274 218.224 10.3782 223.162C15.3336 228.1 21.6472 231.463 28.5205 232.825C35.3939 234.188 42.5183 233.488 48.9929 230.816C55.4675 228.144 61.0014 223.618 64.8948 217.812C68.7883 212.005 70.8664 205.179 70.8664 198.195C70.8664 188.831 67.1333 179.85 60.4882 173.228C53.8432 166.607 44.8307 162.887 35.4332 162.887ZM52.6477 212.562C52.6444 213.698 52.1899 214.787 51.3835 215.59C50.5771 216.394 49.4844 216.847 48.3441 216.85H22.5223C21.382 216.847 20.2893 216.394 19.4829 215.59C18.6765 214.787 18.222 213.698 18.2187 212.562V182.971C18.2214 182.062 18.585 181.191 19.23 180.548C19.8751 179.905 20.7493 179.543 21.6616 179.54H49.2048C50.1171 179.543 50.9913 179.905 51.6364 180.548C52.2814 181.191 52.645 182.062 52.6477 182.971V212.562Z" fill="#3F3D56"/>
<path d="M48.0213 182.542H22.8451C22.6385 182.528 22.4312 182.556 22.2361 182.625C22.041 182.694 21.8622 182.802 21.7109 182.943C21.5595 183.084 21.4388 183.254 21.3563 183.444C21.2738 183.633 21.2312 183.837 21.2312 184.043C21.2312 184.249 21.2738 184.454 21.3563 184.643C21.4388 184.832 21.5595 185.002 21.7109 185.143C21.8622 185.284 22.041 185.392 22.2361 185.461C22.4312 185.53 22.6385 185.558 22.8451 185.544H48.0213C48.2278 185.558 48.4351 185.53 48.6302 185.461C48.8253 185.392 49.0041 185.284 49.1555 185.143C49.3068 185.002 49.4275 184.832 49.51 184.643C49.5926 184.454 49.6351 184.249 49.6351 184.043C49.6351 183.837 49.5926 183.633 49.51 183.444C49.4275 183.254 49.3068 183.084 49.1555 182.943C49.0041 182.802 48.8253 182.694 48.6302 182.625C48.4351 182.556 48.2278 182.528 48.0213 182.542Z" fill="#3F3D56"/>
<path d="M141.494 199.16C140.784 199.16 140.203 200.211 140.203 201.519C140.203 202.827 140.784 203.877 141.494 203.877C142.204 203.877 142.785 202.827 142.785 201.519C142.785 200.211 142.204 199.16 141.494 199.16Z" fill="#3F3D56"/>
<path d="M132.026 199.16C131.316 199.16 130.735 200.211 130.735 201.519C130.735 202.827 131.316 203.877 132.026 203.877C132.736 203.877 133.317 202.827 133.317 201.519C133.317 200.211 132.736 199.16 132.026 199.16Z" fill="#3F3D56"/>
<path d="M136.76 162.887C129.752 162.887 122.901 164.957 117.074 168.837C111.247 172.717 106.706 178.231 104.024 184.683C101.342 191.135 100.64 198.234 102.007 205.084C103.375 211.933 106.749 218.224 111.705 223.162C116.66 228.1 122.974 231.463 129.847 232.825C136.72 234.188 143.845 233.488 150.319 230.816C156.794 228.144 162.328 223.618 166.221 217.812C170.115 212.005 172.193 205.179 172.193 198.195C172.193 188.831 168.46 179.85 161.815 173.228C155.17 166.607 146.157 162.887 136.76 162.887ZM120.191 196.994L122.149 186.616C122.655 183.797 123.967 181.577 126.431 181.577H130.132L130.347 180.73C130.536 179.991 130.966 179.336 131.57 178.868C132.174 178.4 132.918 178.146 133.683 178.146H139.815C140.579 178.146 141.321 178.399 141.925 178.864C142.528 179.33 142.96 179.983 143.151 180.72L143.366 181.577H147.088C149.498 181.577 150.779 183.754 151.381 186.606V186.616L153.35 197.005C153.366 197.083 153.36 197.163 153.332 197.237C153.305 197.312 153.257 197.377 153.195 197.426C153.132 197.475 153.057 197.505 152.978 197.514C152.9 197.523 152.82 197.51 152.748 197.477L150.015 196.222C149.951 196.196 149.894 196.153 149.851 196.099C149.807 196.045 149.779 195.98 149.767 195.912L148.024 186.734C147.702 185.555 147.25 185.019 146.292 185.019H127.238C126.291 185.019 125.775 185.587 125.506 186.734L123.763 195.912C123.75 195.979 123.72 196.043 123.677 196.097C123.634 196.151 123.579 196.194 123.515 196.222L120.793 197.466C120.721 197.499 120.642 197.511 120.563 197.501C120.485 197.492 120.411 197.461 120.348 197.412C120.286 197.364 120.239 197.299 120.211 197.225C120.183 197.152 120.176 197.072 120.191 196.994ZM158.138 203.674L152.253 218.244C149.294 218.244 146.152 215.885 146.152 215.885C144.216 216.861 140.439 217.719 137.62 217.879C137.319 217.89 137.029 217.901 136.76 217.901C136.491 217.901 136.2 217.901 135.899 217.879C133.08 217.719 129.304 216.85 127.367 215.885C127.367 215.885 124.225 218.244 121.267 218.244L115.381 203.674C115.291 203.445 115.243 203.201 115.242 202.955C115.242 202.585 115.348 202.223 115.548 201.912C115.749 201.6 116.034 201.352 116.371 201.197L136.394 192.03C136.507 191.978 136.63 191.95 136.754 191.95C136.879 191.95 137.002 191.978 137.115 192.03L157.148 201.197C157.485 201.352 157.771 201.6 157.971 201.912C158.171 202.223 158.278 202.585 158.278 202.955C158.276 203.201 158.229 203.445 158.138 203.674Z" fill="#3F3D56"/>
<path d="M238.086 162.887C231.078 162.887 224.227 164.957 218.401 168.837C212.574 172.717 208.032 178.231 205.35 184.683C202.668 191.135 201.967 198.234 203.334 205.084C204.701 211.933 208.076 218.224 213.031 223.162C217.987 228.1 224.3 231.463 231.173 232.825C238.047 234.188 245.171 233.488 251.646 230.816C258.12 228.144 263.654 223.618 267.548 217.812C271.441 212.005 273.519 205.179 273.519 198.195C273.519 188.831 269.786 179.85 263.141 173.228C256.496 166.607 247.484 162.887 238.086 162.887ZM254.409 201.637C254.043 201.637 252.827 201.626 252.472 201.605L245.49 201.422C245.454 201.421 245.418 201.43 245.386 201.447C245.354 201.464 245.326 201.488 245.307 201.519L234.828 217.129C234.672 217.373 234.458 217.573 234.204 217.712C233.95 217.851 233.665 217.923 233.375 217.922H230.825C230.223 217.922 230.018 217.322 230.233 216.764L235.624 201.444C235.636 201.412 235.641 201.378 235.637 201.344C235.633 201.31 235.621 201.277 235.602 201.249C235.583 201.22 235.558 201.197 235.528 201.181C235.498 201.164 235.464 201.155 235.43 201.154L222.336 200.865C222.2 200.862 222.065 200.89 221.942 200.948C221.819 201.005 221.711 201.091 221.626 201.197L217.57 206.097C217.408 206.3 217.201 206.464 216.967 206.577C216.732 206.691 216.475 206.75 216.214 206.751H214.418C214.349 206.751 214.281 206.736 214.219 206.705C214.158 206.674 214.105 206.628 214.065 206.573C214.025 206.517 213.999 206.452 213.989 206.384C213.979 206.316 213.986 206.247 214.009 206.182L216.15 198.817C216.311 198.407 216.311 197.951 216.15 197.541L214.009 190.176C213.986 190.111 213.979 190.042 213.989 189.974C213.999 189.906 214.025 189.841 214.065 189.786C214.105 189.73 214.158 189.685 214.219 189.654C214.281 189.623 214.349 189.607 214.418 189.607H216.225C216.486 189.606 216.744 189.664 216.979 189.777C217.214 189.891 217.42 190.056 217.581 190.261L221.562 195.086C221.645 195.193 221.753 195.279 221.877 195.337C222 195.395 222.135 195.423 222.272 195.418L235.441 195.225C235.475 195.225 235.509 195.217 235.54 195.2C235.57 195.184 235.596 195.161 235.615 195.132C235.634 195.103 235.646 195.071 235.649 195.036C235.653 195.002 235.648 194.968 235.634 194.936L230.244 179.626C230.029 179.069 230.233 178.468 230.836 178.468H233.386C233.675 178.469 233.96 178.542 234.214 178.68C234.467 178.819 234.682 179.019 234.838 179.261L245.307 194.882C245.326 194.914 245.353 194.939 245.385 194.956C245.417 194.973 245.453 194.981 245.49 194.979L252.472 194.797C252.817 194.775 254.043 194.764 254.409 194.764C259.186 194.764 262.188 196.308 262.188 198.206C262.188 200.104 259.175 201.637 254.409 201.637Z" fill="#3F3D56"/>
<path d="M40.8242 317.214C39.3489 317.214 37.9066 316.778 36.6799 315.961C35.4532 315.144 34.4971 313.983 33.9325 312.625C33.3679 311.266 33.2201 309.772 33.508 308.33C33.7958 306.888 34.5062 305.563 35.5495 304.524C36.5927 303.484 37.9219 302.776 39.369 302.49C40.816 302.203 42.3158 302.35 43.6789 302.913C45.042 303.475 46.207 304.428 47.0267 305.65C47.8464 306.873 48.2839 308.31 48.2839 309.78C48.2816 311.751 47.495 313.64 46.0965 315.034C44.698 316.427 42.802 317.211 40.8242 317.214ZM40.8242 303.586C39.5948 303.586 38.3929 303.949 37.3706 304.63C36.3484 305.31 35.5516 306.278 35.0811 307.41C34.6106 308.541 34.4875 309.787 34.7273 310.989C34.9672 312.19 35.5592 313.294 36.4286 314.16C37.298 315.027 38.4056 315.617 39.6115 315.856C40.8173 316.095 42.0672 315.972 43.2031 315.503C44.339 315.034 45.3099 314.24 45.993 313.222C46.676 312.203 47.0406 311.005 47.0406 309.78C47.0388 308.138 46.3832 306.563 45.2178 305.402C44.0524 304.241 42.4724 303.587 40.8242 303.586Z" fill="#F0F0F0"/>
<path d="M198.098 150.582C196.622 150.582 195.18 150.146 193.953 149.329C192.727 148.512 191.771 147.351 191.206 145.993C190.641 144.635 190.494 143.14 190.782 141.698C191.069 140.256 191.78 138.932 192.823 137.892C193.866 136.853 195.195 136.145 196.643 135.858C198.09 135.571 199.589 135.718 200.952 136.281C202.316 136.843 203.481 137.796 204.3 139.019C205.12 140.241 205.557 141.678 205.557 143.148C205.555 145.119 204.769 147.008 203.37 148.402C201.972 149.796 200.076 150.579 198.098 150.582ZM198.098 136.954C196.868 136.954 195.666 137.317 194.644 137.998C193.622 138.678 192.825 139.646 192.355 140.778C191.884 141.91 191.761 143.155 192.001 144.357C192.241 145.558 192.833 146.662 193.702 147.528C194.572 148.395 195.679 148.985 196.885 149.224C198.091 149.463 199.341 149.34 200.477 148.871C201.613 148.402 202.583 147.608 203.267 146.59C203.95 145.571 204.314 144.373 204.314 143.148C204.312 141.506 203.657 139.931 202.491 138.77C201.326 137.609 199.746 136.956 198.098 136.954Z" fill="#F0F0F0"/>
<path d="M337.016 354.609L328.645 345.667L337.619 337.326L345.99 346.269L337.016 354.609ZM329.979 345.713L337.062 353.28L344.655 346.222L337.573 338.656L329.979 345.713Z" fill="#F0F0F0"/>
</g>
<defs>
<clipPath id="clip0">
<rect width="635" height="485" fill="white"/>
</clipPath>
</defs>
</svg>
