<svg width="45" height="45" viewBox="0 0 45 45" fill="none" xmlns="http://www.w3.org/2000/svg">
<path d="M30.5168 26.4736L24.2426 21.768V12.1824C24.2426 11.2186 23.4635 10.4396 22.4997 10.4396C21.5359 10.4396 20.7568 11.2186 20.7568 12.1824V22.6395C20.7568 23.1885 21.0148 23.7061 21.454 24.0338L28.4253 29.2623C28.739 29.4976 29.105 29.6109 29.4693 29.6109C30.0008 29.6109 30.5237 29.3721 30.8653 28.912C31.4441 28.1433 31.2872 27.0506 30.5168 26.4736Z" fill="black"/>
<path d="M22.5 0C10.0927 0 0 10.0927 0 22.5C0 34.9073 10.0927 45 22.5 45C34.9073 45 45 34.9073 45 22.5C45 10.0927 34.9073 0 22.5 0ZM22.5 41.5143C12.0168 41.5143 3.48565 32.9832 3.48565 22.5C3.48565 12.0168 12.0168 3.48565 22.5 3.48565C32.9849 3.48565 41.5143 12.0168 41.5143 22.5C41.5143 32.9832 32.9832 41.5143 22.5 41.5143Z" fill="black"/>
</svg>
