<svg width="80" height="26" viewBox="0 0 80 26" fill="none" xmlns="http://www.w3.org/2000/svg">
<path d="M21.459 19.202C21.6843 19.202 21.8576 19.306 21.979 19.514C22.1176 19.722 22.187 20.008 22.187 20.372C22.187 21.048 22.0223 21.5853 21.693 21.984C20.7223 23.1453 19.7776 23.96 18.859 24.428C17.9576 24.896 16.8656 25.13 15.583 25.13C14.6816 25.13 13.8496 25.0173 13.087 24.792C12.3243 24.5667 11.397 24.2287 10.305 23.778C9.31696 23.3447 8.36363 22.9893 7.44496 22.712C6.56096 24.324 5.23496 25.13 3.46696 25.13C2.49629 25.13 1.72496 24.9133 1.15296 24.48C0.563628 24.0293 0.268961 23.4573 0.268961 22.764C0.268961 21.9147 0.676294 21.2127 1.49096 20.658C2.30563 20.086 3.38896 19.8 4.74096 19.8H5.07896L5.54696 12.234C5.65096 10.5007 5.96296 9.07067 6.48296 7.944C7.00296 6.81733 7.72229 5.85533 8.64096 5.058C9.43829 4.36467 10.3483 3.84467 11.371 3.498C12.3936 3.134 13.477 2.952 14.621 2.952C16.493 2.952 17.9316 3.43733 18.937 4.408C19.9423 5.37867 20.445 6.644 20.445 8.204C20.445 9.26133 20.2543 10.1193 19.873 10.778C19.4916 11.4193 18.963 11.74 18.287 11.74C17.8016 11.74 17.4203 11.6273 17.143 11.402C16.8656 11.1593 16.727 10.8213 16.727 10.388C16.727 10.232 16.7616 9.946 16.831 9.53C16.935 9.04467 16.987 8.61133 16.987 8.23C16.987 7.502 16.7703 6.93 16.337 6.514C15.921 6.08067 15.2796 5.864 14.413 5.864C12.8876 5.864 11.709 6.36667 10.877 7.372C10.045 8.36 9.51629 9.92 9.29096 12.052L8.69296 17.954C8.60629 18.786 8.49363 19.5053 8.35496 20.112C9.46429 20.3027 10.851 20.606 12.515 21.022C13.4856 21.2647 14.231 21.438 14.751 21.542C15.271 21.646 15.7303 21.698 16.129 21.698C17.1343 21.698 17.9923 21.5333 18.703 21.204C19.431 20.8573 20.1156 20.3113 20.757 19.566C20.965 19.3233 21.199 19.202 21.459 19.202ZM23.4831 11.168C22.7551 11.168 22.2091 11.0033 21.8451 10.674C21.4811 10.3273 21.2991 9.85067 21.2991 9.244C21.2991 8.63733 21.5331 8.13467 22.0011 7.736C22.4864 7.32 23.0844 7.112 23.7951 7.112C24.4364 7.112 24.9564 7.268 25.3551 7.58C25.7538 7.892 25.9531 8.334 25.9531 8.906C25.9531 9.59933 25.7278 10.154 25.2771 10.57C24.8264 10.9687 24.2284 11.168 23.4831 11.168ZM23.2751 25.13C22.1484 25.13 21.3251 24.7313 20.8051 23.934C20.3024 23.1367 20.0511 22.0793 20.0511 20.762C20.0511 19.982 20.1464 18.9853 20.3371 17.772C20.5451 16.5413 20.8051 15.3973 21.1171 14.34C21.2731 13.7853 21.4811 13.404 21.7411 13.196C22.0011 12.988 22.4171 12.884 22.9891 12.884C23.8731 12.884 24.3151 13.1787 24.3151 13.768C24.3151 14.2013 24.1504 15.2067 23.8211 16.784C23.4051 18.6907 23.1971 19.982 23.1971 20.658C23.1971 21.178 23.2664 21.5767 23.4051 21.854C23.5438 22.1313 23.7778 22.27 24.1071 22.27C24.4191 22.27 24.8091 22.0533 25.2771 21.62C25.7451 21.1867 26.3691 20.502 27.1491 19.566C27.3571 19.3233 27.5911 19.202 27.8511 19.202C28.0764 19.202 28.2498 19.306 28.3711 19.514C28.5098 19.722 28.5791 20.008 28.5791 20.372C28.5791 21.0653 28.4144 21.6027 28.0851 21.984C26.3691 24.0813 24.7658 25.13 23.2751 25.13ZM40.3075 17.018C40.5329 17.018 40.7062 17.1307 40.8275 17.356C40.9489 17.5813 41.0095 17.8673 41.0095 18.214C41.0095 18.6473 40.9489 18.9853 40.8275 19.228C40.7062 19.4533 40.5155 19.6093 40.2555 19.696C39.2155 20.06 38.0715 20.268 36.8235 20.32C36.4769 21.7587 35.8182 22.92 34.8475 23.804C33.8942 24.688 32.8369 25.13 31.6755 25.13C29.9249 25.13 28.6509 24.4627 27.8535 23.128C27.0562 21.7933 26.6575 19.8607 26.6575 17.33C26.6575 15.094 26.9349 12.6673 27.4895 10.05C28.0442 7.41533 28.8502 5.17933 29.9075 3.342C30.9822 1.48733 32.2562 0.559999 33.7295 0.559999C34.5269 0.559999 35.1682 0.906665 35.6535 1.6C36.1389 2.276 36.3815 3.16 36.3815 4.252C36.3815 5.67333 36.1129 7.086 35.5755 8.49C35.0382 9.894 34.1455 11.3673 32.8975 12.91C34.0589 12.9967 35.0035 13.482 35.7315 14.366C36.4595 15.2327 36.8929 16.3073 37.0315 17.59C37.8462 17.538 38.8169 17.3647 39.9435 17.07C40.0475 17.0353 40.1689 17.018 40.3075 17.018ZM33.1315 3.134C32.7849 3.134 32.4035 3.654 31.9875 4.694C31.5889 5.71667 31.2162 7.112 30.8695 8.88C30.5229 10.648 30.2629 12.5807 30.0895 14.678C31.2335 12.5807 32.1435 10.7347 32.8195 9.14C33.5129 7.528 33.8595 6.098 33.8595 4.85C33.8595 4.29533 33.7902 3.87067 33.6515 3.576C33.5302 3.28133 33.3569 3.134 33.1315 3.134ZM31.7795 22.374C32.3169 22.374 32.7935 22.1487 33.2095 21.698C33.6255 21.2473 33.9029 20.5973 34.0415 19.748C33.5042 19.384 33.0882 18.9073 32.7935 18.318C32.5162 17.7287 32.3775 17.1047 32.3775 16.446C32.3775 16.2033 32.4122 15.874 32.4815 15.458H32.4035C31.6929 15.458 31.0949 15.8133 30.6095 16.524C30.1415 17.2173 29.9075 18.1533 29.9075 19.332C29.9075 20.32 30.0895 21.074 30.4535 21.594C30.8349 22.114 31.2769 22.374 31.7795 22.374ZM41.4166 25.13C40.6366 25.13 39.9953 24.7747 39.4926 24.064C39.0073 23.336 38.7646 22.4347 38.7646 21.36C38.7646 20.06 38.8513 18.8727 39.0246 17.798C39.1979 16.706 39.4839 15.5533 39.8826 14.34C40.0559 13.82 40.2986 13.4473 40.6106 13.222C40.9226 12.9967 41.4166 12.884 42.0926 12.884C42.4739 12.884 42.7339 12.9447 42.8726 13.066C43.0286 13.1873 43.1066 13.3693 43.1066 13.612C43.1066 13.7507 43.0113 14.2187 42.8206 15.016C42.6473 15.6573 42.5086 16.238 42.4046 16.758C42.0579 18.578 41.8846 19.7913 41.8846 20.398C41.8846 20.762 41.9279 21.022 42.0146 21.178C42.1013 21.3167 42.2399 21.386 42.4306 21.386C42.6906 21.386 43.0113 21.126 43.3926 20.606C43.7913 20.086 44.2073 19.2973 44.6406 18.24C45.0913 17.1827 45.5246 15.8827 45.9406 14.34C46.0793 13.82 46.2873 13.4473 46.5646 13.222C46.8593 12.9967 47.2926 12.884 47.8646 12.884C48.2633 12.884 48.5406 12.936 48.6966 13.04C48.8526 13.1267 48.9306 13.3 48.9306 13.56C48.9306 13.9933 48.7139 15.1807 48.2806 17.122C47.7953 19.3407 47.5526 20.71 47.5526 21.23C47.5526 21.5593 47.6219 21.8193 47.7606 22.01C47.8993 22.1833 48.0813 22.27 48.3066 22.27C48.6533 22.27 49.0606 22.062 49.5286 21.646C50.0139 21.2127 50.6553 20.5193 51.4526 19.566C51.6606 19.3233 51.8946 19.202 52.1546 19.202C52.3799 19.202 52.5533 19.306 52.6746 19.514C52.8133 19.722 52.8826 20.008 52.8826 20.372C52.8826 21.0653 52.7179 21.6027 52.3886 21.984C51.6433 22.9027 50.8373 23.6567 49.9706 24.246C49.1213 24.8353 48.1506 25.13 47.0586 25.13C46.2266 25.13 45.6113 24.8093 45.2126 24.168C44.8313 23.5267 44.6406 22.6253 44.6406 21.464C44.3459 22.6427 43.9039 23.5527 43.3146 24.194C42.7253 24.818 42.0926 25.13 41.4166 25.13ZM52.6204 25.13C51.9617 25.13 51.4937 24.7833 51.2164 24.09C50.9564 23.3967 50.8264 22.2873 50.8264 20.762C50.8264 18.5087 51.147 16.368 51.7884 14.34C51.9444 13.8373 52.1957 13.4733 52.5424 13.248C52.9064 13.0053 53.409 12.884 54.0504 12.884C54.397 12.884 54.6397 12.9273 54.7784 13.014C54.917 13.1007 54.9864 13.2653 54.9864 13.508C54.9864 13.7853 54.8564 14.4093 54.5964 15.38C54.423 16.0733 54.2844 16.68 54.1804 17.2C54.0764 17.72 53.9897 18.3613 53.9204 19.124C54.4924 17.6333 55.1337 16.42 55.8444 15.484C56.555 14.548 57.2484 13.8807 57.9244 13.482C58.6177 13.0833 59.2504 12.884 59.8224 12.884C60.949 12.884 61.5124 13.4473 61.5124 14.574C61.5124 14.7993 61.4344 15.3453 61.2784 16.212C61.1397 16.9053 61.0704 17.3387 61.0704 17.512C61.0704 18.1187 61.287 18.422 61.7204 18.422C62.2057 18.422 62.8297 18.0407 63.5924 17.278C63.8177 17.0527 64.0517 16.94 64.2944 16.94C64.5197 16.94 64.693 17.044 64.8144 17.252C64.953 17.4427 65.0224 17.7027 65.0224 18.032C65.0224 18.6733 64.849 19.176 64.5024 19.54C64.017 20.0427 63.445 20.476 62.7864 20.84C62.145 21.1867 61.4604 21.36 60.7324 21.36C59.8137 21.36 59.1117 21.126 58.6264 20.658C58.1584 20.19 57.9244 19.5573 57.9244 18.76C57.9244 18.5 57.9504 18.24 58.0024 17.98C58.037 17.6333 58.0544 17.3993 58.0544 17.278C58.0544 17.0007 57.959 16.862 57.7684 16.862C57.5084 16.862 57.1617 17.1567 56.7284 17.746C56.3124 18.318 55.8964 19.0807 55.4804 20.034C55.0644 20.9873 54.7264 21.9927 54.4664 23.05C54.2757 23.8647 54.0504 24.4193 53.7904 24.714C53.5477 24.9913 53.1577 25.13 52.6204 25.13ZM66.0124 11.168C65.2844 11.168 64.7384 11.0033 64.3744 10.674C64.0104 10.3273 63.8284 9.85067 63.8284 9.244C63.8284 8.63733 64.0624 8.13467 64.5304 7.736C65.0157 7.32 65.6137 7.112 66.3244 7.112C66.9657 7.112 67.4857 7.268 67.8844 7.58C68.2831 7.892 68.4824 8.334 68.4824 8.906C68.4824 9.59933 68.2571 10.154 67.8064 10.57C67.3557 10.9687 66.7577 11.168 66.0124 11.168ZM65.8044 25.13C64.6777 25.13 63.8544 24.7313 63.3344 23.934C62.8317 23.1367 62.5804 22.0793 62.5804 20.762C62.5804 19.982 62.6757 18.9853 62.8664 17.772C63.0744 16.5413 63.3344 15.3973 63.6464 14.34C63.8024 13.7853 64.0104 13.404 64.2704 13.196C64.5304 12.988 64.9464 12.884 65.5184 12.884C66.4024 12.884 66.8444 13.1787 66.8444 13.768C66.8444 14.2013 66.6797 15.2067 66.3504 16.784C65.9344 18.6907 65.7264 19.982 65.7264 20.658C65.7264 21.178 65.7957 21.5767 65.9344 21.854C66.0731 22.1313 66.3071 22.27 66.6364 22.27C66.9484 22.27 67.3384 22.0533 67.8064 21.62C68.2744 21.1867 68.8984 20.502 69.6784 19.566C69.8864 19.3233 70.1204 19.202 70.3804 19.202C70.6057 19.202 70.7791 19.306 70.9004 19.514C71.0391 19.722 71.1084 20.008 71.1084 20.372C71.1084 21.0653 70.9437 21.6027 70.6144 21.984C68.8984 24.0813 67.2951 25.13 65.8044 25.13ZM71.9948 25.13C71.0068 25.13 70.2008 24.74 69.5768 23.96C68.9702 23.18 68.6668 22.1573 68.6668 20.892C68.6668 19.5053 68.9875 18.1967 69.6288 16.966C70.2702 15.718 71.1195 14.7213 72.1768 13.976C73.2515 13.2133 74.3868 12.832 75.5828 12.832C75.9642 12.832 76.2155 12.91 76.3368 13.066C76.4755 13.2047 76.5882 13.4647 76.6748 13.846C77.0042 13.7767 77.3682 13.742 77.7668 13.742C78.1828 13.742 78.5035 13.846 78.7288 14.054C78.9542 14.262 79.0668 14.5567 79.0668 14.938C79.0668 15.3367 78.9802 16.03 78.8068 17.018C78.6162 18.0753 78.4688 19.0893 78.3648 20.06C78.2608 21.0133 78.2088 22.088 78.2088 23.284C78.2088 23.9427 78.0702 24.4193 77.7928 24.714C77.5328 24.9913 77.0995 25.13 76.4928 25.13C75.9035 25.13 75.4615 24.9913 75.1668 24.714C74.8895 24.4193 74.7508 23.9513 74.7508 23.31L74.7768 22.894C74.2395 24.3847 73.3122 25.13 71.9948 25.13ZM73.0088 22.504C73.4942 22.504 73.9362 22.166 74.3348 21.49C74.7335 20.814 75.0888 19.6093 75.4008 17.876L75.8948 15.25C75.1842 15.2673 74.5255 15.5447 73.9188 16.082C73.3122 16.602 72.8268 17.2953 72.4628 18.162C72.0988 19.0287 71.9168 19.9473 71.9168 20.918C71.9168 21.438 72.0122 21.8367 72.2028 22.114C72.4108 22.374 72.6795 22.504 73.0088 22.504Z" fill="#07B4FE"/>
</svg>
