<svg width="28" height="30" viewBox="0 0 28 30" fill="none" xmlns="http://www.w3.org/2000/svg">
<path d="M21.0246 10.2903C17.5396 8.34109 11.946 5.21107 3.26986 0.353108C2.68491 -0.0332017 2.01191 -0.0838268 1.43042 0.11299L16.3162 14.9988L21.0246 10.2903Z" fill="#32BBFF"/>
<path d="M1.43045 0.113037C1.32147 0.149951 1.21541 0.194483 1.11399 0.248272C0.471856 0.595616 0 1.264 0 2.10933V27.8883C0 28.7336 0.471798 29.402 1.11399 29.7493C1.21524 29.803 1.32123 29.8477 1.4301 29.8849L16.3162 14.9988L1.43045 0.113037Z" fill="#32BBFF"/>
<path d="M16.3162 14.9988L1.43005 29.8848C2.01171 30.0831 2.68472 30.0364 3.26984 29.6444C11.6838 24.9329 17.2144 21.84 20.7397 19.8741C20.8379 19.819 20.934 19.7651 21.0291 19.7117L16.3162 14.9988Z" fill="#32BBFF"/>
<path d="M0 14.9989V27.8884C0 28.7337 0.471798 29.4021 1.11399 29.7494C1.21524 29.8031 1.32123 29.8478 1.4301 29.885L16.3162 14.9989H0Z" fill="#2C9FD9"/>
<path d="M3.26992 0.353198C2.57529 -0.105474 1.75614 -0.0924078 1.11401 0.248374L16.0903 15.2247L21.0246 10.2904C17.5396 8.34118 11.946 5.21116 3.26992 0.353198Z" fill="#29CC5E"/>
<path d="M16.0904 14.7731L1.11401 29.7494C1.7562 30.0901 2.57529 30.1098 3.26992 29.6445C11.6839 24.933 17.2144 21.8401 20.7398 19.8743C20.8379 19.8191 20.9341 19.7652 21.0291 19.7118L16.0904 14.7731Z" fill="#D93F21"/>
<path d="M27.2403 14.9988C27.2403 14.2845 26.8799 13.5637 26.1656 13.164C26.1656 13.164 24.8297 12.4186 20.735 10.1283L15.8645 14.9988L20.7397 19.8741C24.7895 17.6002 26.1655 16.8335 26.1655 16.8335C26.8799 16.4339 27.2403 15.7131 27.2403 14.9988Z" fill="#FFD500"/>
<path d="M26.1656 16.8337C26.8799 16.434 27.2403 15.7132 27.2403 14.9989H15.8645L20.7397 19.8742C24.7896 17.6004 26.1656 16.8337 26.1656 16.8337Z" fill="#FFAA00"/>
</svg>
