<svg width="620" height="112" viewBox="0 0 620 112" fill="none" xmlns="http://www.w3.org/2000/svg">
<path d="M21.376 21.72C23.328 22.136 24.896 23.112 26.08 24.648C27.264 26.152 27.856 27.88 27.856 29.832C27.856 32.648 26.864 34.888 24.88 36.552C22.928 38.184 20.192 39 16.672 39H0.976V5.304H16.144C19.568 5.304 22.24 6.088 24.16 7.656C26.112 9.224 27.088 11.352 27.088 14.04C27.088 16.024 26.56 17.672 25.504 18.984C24.48 20.296 23.104 21.208 21.376 21.72ZM9.184 18.936H14.56C15.904 18.936 16.928 18.648 17.632 18.072C18.368 17.464 18.736 16.584 18.736 15.432C18.736 14.28 18.368 13.4 17.632 12.792C16.928 12.184 15.904 11.88 14.56 11.88H9.184V18.936ZM15.232 32.376C16.608 32.376 17.664 32.072 18.4 31.464C19.168 30.824 19.552 29.912 19.552 28.728C19.552 27.544 19.152 26.616 18.352 25.944C17.584 25.272 16.512 24.936 15.136 24.936H9.184V32.376H15.232ZM59.0646 12.216V39H50.8566V35.352C50.0246 36.536 48.8886 37.496 47.4486 38.232C46.0406 38.936 44.4726 39.288 42.7446 39.288C40.6966 39.288 38.8886 38.84 37.3206 37.944C35.7526 37.016 34.5366 35.688 33.6726 33.96C32.8086 32.232 32.3766 30.2 32.3766 27.864V12.216H40.5366V26.76C40.5366 28.552 41.0006 29.944 41.9286 30.936C42.8566 31.928 44.1046 32.424 45.6726 32.424C47.2726 32.424 48.5366 31.928 49.4646 30.936C50.3926 29.944 50.8566 28.552 50.8566 26.76V12.216H59.0646ZM81.3284 39L73.1684 27.768V39H64.9604V3.48H73.1684V23.112L81.2804 12.216H91.4084L80.2724 25.656L91.5044 39H81.3284ZM93.0003 25.56C93.0003 22.808 93.5123 20.392 94.5363 18.312C95.5923 16.232 97.0163 14.632 98.8083 13.512C100.6 12.392 102.6 11.832 104.808 11.832C106.696 11.832 108.344 12.216 109.752 12.984C111.192 13.752 112.296 14.76 113.064 16.008V12.216H121.272V39H113.064V35.208C112.264 36.456 111.144 37.464 109.704 38.232C108.296 39 106.648 39.384 104.76 39.384C102.584 39.384 100.6 38.824 98.8083 37.704C97.0163 36.552 95.5923 34.936 94.5363 32.856C93.5123 30.744 93.0003 28.312 93.0003 25.56ZM113.064 25.608C113.064 23.56 112.488 21.944 111.336 20.76C110.216 19.576 108.84 18.984 107.208 18.984C105.576 18.984 104.184 19.576 103.032 20.76C101.912 21.912 101.352 23.512 101.352 25.56C101.352 27.608 101.912 29.24 103.032 30.456C104.184 31.64 105.576 32.232 107.208 32.232C108.84 32.232 110.216 31.64 111.336 30.456C112.488 29.272 113.064 27.656 113.064 25.608ZM158.358 33.048H145.782L143.766 39H135.174L147.366 5.304H156.87L169.062 39H160.374L158.358 33.048ZM156.246 26.712L152.07 14.376L147.942 26.712H156.246ZM180.981 16.008C181.781 14.76 182.885 13.752 184.293 12.984C185.701 12.216 187.349 11.832 189.237 11.832C191.445 11.832 193.445 12.392 195.237 13.512C197.029 14.632 198.437 16.232 199.461 18.312C200.517 20.392 201.045 22.808 201.045 25.56C201.045 28.312 200.517 30.744 199.461 32.856C198.437 34.936 197.029 36.552 195.237 37.704C193.445 38.824 191.445 39.384 189.237 39.384C187.381 39.384 185.733 39 184.293 38.232C182.885 37.464 181.781 36.472 180.981 35.256V51.768H172.773V12.216H180.981V16.008ZM192.693 25.56C192.693 23.512 192.117 21.912 190.965 20.76C189.845 19.576 188.453 18.984 186.789 18.984C185.157 18.984 183.765 19.576 182.613 20.76C181.493 21.944 180.933 23.56 180.933 25.608C180.933 27.656 181.493 29.272 182.613 30.456C183.765 31.64 185.157 32.232 186.789 32.232C188.421 32.232 189.813 31.64 190.965 30.456C192.117 29.24 192.693 27.608 192.693 25.56ZM213.559 3.48V39H205.351V3.48H213.559ZM223.635 9.432C222.195 9.432 221.011 9.016 220.083 8.184C219.187 7.32 218.739 6.264 218.739 5.016C218.739 3.736 219.187 2.68 220.083 1.848C221.011 0.983997 222.195 0.551997 223.635 0.551997C225.043 0.551997 226.195 0.983997 227.091 1.848C228.019 2.68 228.483 3.736 228.483 5.016C228.483 6.264 228.019 7.32 227.091 8.184C226.195 9.016 225.043 9.432 223.635 9.432ZM227.715 12.216V39H219.507V12.216H227.715ZM250.032 39L241.872 27.768V39H233.664V3.48H241.872V23.112L249.984 12.216H260.112L248.976 25.656L260.208 39H250.032ZM261.703 25.56C261.703 22.808 262.215 20.392 263.239 18.312C264.295 16.232 265.719 14.632 267.511 13.512C269.303 12.392 271.303 11.832 273.511 11.832C275.399 11.832 277.047 12.216 278.455 12.984C279.895 13.752 280.999 14.76 281.767 16.008V12.216H289.975V39H281.767V35.208C280.967 36.456 279.847 37.464 278.407 38.232C276.999 39 275.351 39.384 273.463 39.384C271.287 39.384 269.303 38.824 267.511 37.704C265.719 36.552 264.295 34.936 263.239 32.856C262.215 30.744 261.703 28.312 261.703 25.56ZM281.767 25.608C281.767 23.56 281.191 21.944 280.039 20.76C278.919 19.576 277.543 18.984 275.911 18.984C274.279 18.984 272.887 19.576 271.735 20.76C270.615 21.912 270.055 23.512 270.055 25.56C270.055 27.608 270.615 29.24 271.735 30.456C272.887 31.64 274.279 32.232 275.911 32.232C277.543 32.232 278.919 31.64 280.039 30.456C281.191 29.272 281.767 27.656 281.767 25.608ZM306.81 39.384C304.474 39.384 302.394 38.984 300.57 38.184C298.746 37.384 297.306 36.296 296.25 34.92C295.194 33.512 294.602 31.944 294.474 30.216H302.586C302.682 31.144 303.114 31.896 303.882 32.472C304.65 33.048 305.594 33.336 306.714 33.336C307.738 33.336 308.522 33.144 309.066 32.76C309.642 32.344 309.93 31.816 309.93 31.176C309.93 30.408 309.53 29.848 308.73 29.496C307.93 29.112 306.634 28.696 304.842 28.248C302.922 27.8 301.322 27.336 300.042 26.856C298.762 26.344 297.658 25.56 296.73 24.504C295.802 23.416 295.338 21.96 295.338 20.136C295.338 18.6 295.754 17.208 296.586 15.96C297.45 14.68 298.698 13.672 300.33 12.936C301.994 12.2 303.962 11.832 306.234 11.832C309.594 11.832 312.234 12.664 314.154 14.328C316.106 15.992 317.226 18.2 317.514 20.952H309.93C309.802 20.024 309.386 19.288 308.682 18.744C308.01 18.2 307.114 17.928 305.994 17.928C305.034 17.928 304.298 18.12 303.786 18.504C303.274 18.856 303.018 19.352 303.018 19.992C303.018 20.76 303.418 21.336 304.218 21.72C305.05 22.104 306.33 22.488 308.058 22.872C310.042 23.384 311.658 23.896 312.906 24.408C314.154 24.888 315.242 25.688 316.17 26.808C317.13 27.896 317.626 29.368 317.658 31.224C317.658 32.792 317.21 34.2 316.314 35.448C315.45 36.664 314.186 37.624 312.522 38.328C310.89 39.032 308.986 39.384 306.81 39.384ZM326.807 9.432C325.367 9.432 324.183 9.016 323.255 8.184C322.359 7.32 321.911 6.264 321.911 5.016C321.911 3.736 322.359 2.68 323.255 1.848C324.183 0.983997 325.367 0.551997 326.807 0.551997C328.215 0.551997 329.367 0.983997 330.263 1.848C331.191 2.68 331.655 3.736 331.655 5.016C331.655 6.264 331.191 7.32 330.263 8.184C329.367 9.016 328.215 9.432 326.807 9.432ZM330.887 12.216V39H322.679V12.216H330.887ZM354.255 18.168H345.855L351.231 5.304H356.751L354.255 18.168ZM365.151 18.168H356.799L362.175 5.304H367.647L365.151 18.168ZM381.184 32.664H391.936V39H372.976V5.304H381.184V32.664ZM399.979 9.432C398.539 9.432 397.355 9.016 396.427 8.184C395.531 7.32 395.083 6.264 395.083 5.016C395.083 3.736 395.531 2.68 396.427 1.848C397.355 0.983997 398.539 0.551997 399.979 0.551997C401.387 0.551997 402.539 0.983997 403.435 1.848C404.363 2.68 404.827 3.736 404.827 5.016C404.827 6.264 404.363 7.32 403.435 8.184C402.539 9.016 401.387 9.432 399.979 9.432ZM404.059 12.216V39H395.851V12.216H404.059ZM418.215 16.008C418.983 14.76 420.087 13.752 421.527 12.984C422.967 12.216 424.615 11.832 426.471 11.832C428.679 11.832 430.679 12.392 432.471 13.512C434.263 14.632 435.671 16.232 436.695 18.312C437.751 20.392 438.279 22.808 438.279 25.56C438.279 28.312 437.751 30.744 436.695 32.856C435.671 34.936 434.263 36.552 432.471 37.704C430.679 38.824 428.679 39.384 426.471 39.384C424.583 39.384 422.935 39.016 421.527 38.28C420.119 37.512 419.015 36.504 418.215 35.256V39H410.007V3.48H418.215V16.008ZM429.927 25.56C429.927 23.512 429.351 21.912 428.199 20.76C427.079 19.576 425.687 18.984 424.023 18.984C422.391 18.984 420.999 19.576 419.847 20.76C418.727 21.944 418.167 23.56 418.167 25.608C418.167 27.656 418.727 29.272 419.847 30.456C420.999 31.64 422.391 32.232 424.023 32.232C425.655 32.232 427.047 31.64 428.199 30.456C429.351 29.24 429.927 27.608 429.927 25.56ZM469.033 12.216V39H460.825V35.352C459.993 36.536 458.857 37.496 457.417 38.232C456.009 38.936 454.441 39.288 452.713 39.288C450.665 39.288 448.857 38.84 447.289 37.944C445.721 37.016 444.505 35.688 443.641 33.96C442.777 32.232 442.345 30.2 442.345 27.864V12.216H450.505V26.76C450.505 28.552 450.969 29.944 451.897 30.936C452.825 31.928 454.073 32.424 455.641 32.424C457.241 32.424 458.505 31.928 459.433 30.936C460.361 29.944 460.825 28.552 460.825 26.76V12.216H469.033ZM483.137 16.68C484.097 15.208 485.297 14.056 486.737 13.224C488.177 12.36 489.777 11.928 491.537 11.928V20.616H489.281C487.233 20.616 485.697 21.064 484.673 21.96C483.649 22.824 483.137 24.36 483.137 26.568V39H474.929V12.216H483.137V16.68ZM499.588 9.432C498.148 9.432 496.964 9.016 496.036 8.184C495.14 7.32 494.692 6.264 494.692 5.016C494.692 3.736 495.14 2.68 496.036 1.848C496.964 0.983997 498.148 0.551997 499.588 0.551997C500.996 0.551997 502.148 0.983997 503.044 1.848C503.972 2.68 504.436 3.736 504.436 5.016C504.436 6.264 503.972 7.32 503.044 8.184C502.148 9.016 500.996 9.432 499.588 9.432ZM503.668 12.216V39H495.46V12.216H503.668ZM507.985 25.56C507.985 22.808 508.497 20.392 509.521 18.312C510.577 16.232 512.001 14.632 513.793 13.512C515.585 12.392 517.585 11.832 519.793 11.832C521.681 11.832 523.329 12.216 524.737 12.984C526.177 13.752 527.281 14.76 528.049 16.008V12.216H536.257V39H528.049V35.208C527.249 36.456 526.129 37.464 524.689 38.232C523.281 39 521.633 39.384 519.745 39.384C517.569 39.384 515.585 38.824 513.793 37.704C512.001 36.552 510.577 34.936 509.521 32.856C508.497 30.744 507.985 28.312 507.985 25.56ZM528.049 25.608C528.049 23.56 527.473 21.944 526.321 20.76C525.201 19.576 523.825 18.984 522.193 18.984C520.561 18.984 519.169 19.576 518.017 20.76C516.897 21.912 516.337 23.512 516.337 25.56C516.337 27.608 516.897 29.24 518.017 30.456C519.169 31.64 520.561 32.232 522.193 32.232C523.825 32.232 525.201 31.64 526.321 30.456C527.473 29.272 528.049 27.656 528.049 25.608ZM544.067 5.304H552.467L547.091 18.168H541.571L544.067 5.304ZM554.963 5.304H563.363L557.987 18.168H552.467L554.963 5.304ZM576.703 25.56C576.703 22.808 577.215 20.392 578.239 18.312C579.295 16.232 580.719 14.632 582.511 13.512C584.303 12.392 586.303 11.832 588.511 11.832C590.271 11.832 591.871 12.2 593.311 12.936C594.783 13.672 595.935 14.664 596.767 15.912V3.48H604.975V39H596.767V35.16C595.999 36.44 594.895 37.464 593.455 38.232C592.047 39 590.399 39.384 588.511 39.384C586.303 39.384 584.303 38.824 582.511 37.704C580.719 36.552 579.295 34.936 578.239 32.856C577.215 30.744 576.703 28.312 576.703 25.56ZM596.767 25.608C596.767 23.56 596.191 21.944 595.039 20.76C593.919 19.576 592.543 18.984 590.911 18.984C589.279 18.984 587.887 19.576 586.735 20.76C585.615 21.912 585.055 23.512 585.055 25.56C585.055 27.608 585.615 29.24 586.735 30.456C587.887 31.64 589.279 32.232 590.911 32.232C592.543 32.232 593.919 31.64 595.039 30.456C596.191 29.272 596.767 27.656 596.767 25.608ZM615.042 9.432C613.602 9.432 612.418 9.016 611.49 8.184C610.594 7.32 610.146 6.264 610.146 5.016C610.146 3.736 610.594 2.68 611.49 1.848C612.418 0.983997 613.602 0.551997 615.042 0.551997C616.45 0.551997 617.602 0.983997 618.498 1.848C619.426 2.68 619.89 3.736 619.89 5.016C619.89 6.264 619.426 7.32 618.498 8.184C617.602 9.016 616.45 9.432 615.042 9.432ZM619.122 12.216V39H610.914V12.216H619.122ZM30.16 77.304V111H21.952V97.128H9.184V111H0.976V77.304H9.184V90.504H21.952V77.304H30.16ZM61.7654 88.152C61.7654 90.104 61.3174 91.896 60.4214 93.528C59.5254 95.128 58.1494 96.424 56.2934 97.416C54.4374 98.408 52.1334 98.904 49.3814 98.904H44.2934V111H36.0854V77.304H49.3814C52.0694 77.304 54.3414 77.768 56.1974 78.696C58.0534 79.624 59.4454 80.904 60.3734 82.536C61.3014 84.168 61.7654 86.04 61.7654 88.152ZM48.7574 92.376C50.3254 92.376 51.4934 92.008 52.2614 91.272C53.0294 90.536 53.4134 89.496 53.4134 88.152C53.4134 86.808 53.0294 85.768 52.2614 85.032C51.4934 84.296 50.3254 83.928 48.7574 83.928H44.2934V92.376H48.7574ZM95.7464 111L84.4184 96.12V111H76.2104V77.304H84.4184V92.088L95.6504 77.304H105.298L92.2424 93.816L105.778 111H95.7464ZM108.047 97.56C108.047 94.808 108.559 92.392 109.583 90.312C110.639 88.232 112.063 86.632 113.855 85.512C115.647 84.392 117.647 83.832 119.855 83.832C121.743 83.832 123.391 84.216 124.799 84.984C126.239 85.752 127.343 86.76 128.111 88.008V84.216H136.319V111H128.111V107.208C127.311 108.456 126.191 109.464 124.751 110.232C123.343 111 121.695 111.384 119.807 111.384C117.631 111.384 115.647 110.824 113.855 109.704C112.063 108.552 110.639 106.936 109.583 104.856C108.559 102.744 108.047 100.312 108.047 97.56ZM128.111 97.608C128.111 95.56 127.535 93.944 126.383 92.76C125.263 91.576 123.887 90.984 122.255 90.984C120.623 90.984 119.231 91.576 118.079 92.76C116.959 93.912 116.399 95.512 116.399 97.56C116.399 99.608 116.959 101.24 118.079 102.456C119.231 103.64 120.623 104.232 122.255 104.232C123.887 104.232 125.263 103.64 126.383 102.456C127.535 101.272 128.111 99.656 128.111 97.608ZM176.433 83.928C179.761 83.928 182.401 84.936 184.353 86.952C186.337 88.968 187.329 91.768 187.329 95.352V111H179.169V96.456C179.169 94.728 178.705 93.4 177.777 92.472C176.881 91.512 175.633 91.032 174.033 91.032C172.433 91.032 171.169 91.512 170.241 92.472C169.345 93.4 168.897 94.728 168.897 96.456V111H160.737V96.456C160.737 94.728 160.273 93.4 159.345 92.472C158.449 91.512 157.201 91.032 155.601 91.032C154.001 91.032 152.737 91.512 151.809 92.472C150.913 93.4 150.465 94.728 150.465 96.456V111H142.257V84.216H150.465V87.576C151.297 86.456 152.385 85.576 153.729 84.936C155.073 84.264 156.593 83.928 158.289 83.928C160.305 83.928 162.097 84.36 163.665 85.224C165.265 86.088 166.513 87.32 167.409 88.92C168.337 87.448 169.601 86.248 171.201 85.32C172.801 84.392 174.545 83.928 176.433 83.928ZM219.518 84.216V111H211.31V107.352C210.478 108.536 209.342 109.496 207.902 110.232C206.494 110.936 204.926 111.288 203.198 111.288C201.15 111.288 199.342 110.84 197.774 109.944C196.206 109.016 194.99 107.688 194.126 105.96C193.262 104.232 192.83 102.2 192.83 99.864V84.216H200.99V98.76C200.99 100.552 201.454 101.944 202.382 102.936C203.31 103.928 204.558 104.424 206.126 104.424C207.726 104.424 208.99 103.928 209.918 102.936C210.846 101.944 211.31 100.552 211.31 98.76V84.216H219.518Z" fill="#080808"/>
</svg>
