<svg width="622" height="124" viewBox="0 0 622 124" fill="none" xmlns="http://www.w3.org/2000/svg">
<path d="M13.6 5.304C17.152 5.304 20.256 6.008 22.912 7.416C25.568 8.824 27.616 10.808 29.056 13.368C30.528 15.896 31.264 18.824 31.264 22.152C31.264 25.448 30.528 28.376 29.056 30.936C27.616 33.496 25.552 35.48 22.864 36.888C20.208 38.296 17.12 39 13.6 39H0.976V5.304H13.6ZM13.072 31.896C16.176 31.896 18.592 31.048 20.32 29.352C22.048 27.656 22.912 25.256 22.912 22.152C22.912 19.048 22.048 16.632 20.32 14.904C18.592 13.176 16.176 12.312 13.072 12.312H9.184V31.896H13.072ZM48.043 39.384C45.419 39.384 43.051 38.824 40.939 37.704C38.859 36.584 37.211 34.984 35.995 32.904C34.811 30.824 34.219 28.392 34.219 25.608C34.219 22.856 34.827 20.44 36.043 18.36C37.259 16.248 38.923 14.632 41.035 13.512C43.147 12.392 45.515 11.832 48.139 11.832C50.763 11.832 53.131 12.392 55.243 13.512C57.355 14.632 59.019 16.248 60.235 18.36C61.451 20.44 62.059 22.856 62.059 25.608C62.059 28.36 61.435 30.792 60.187 32.904C58.971 34.984 57.291 36.584 55.147 37.704C53.035 38.824 50.667 39.384 48.043 39.384ZM48.043 32.28C49.611 32.28 50.939 31.704 52.027 30.552C53.147 29.4 53.707 27.752 53.707 25.608C53.707 23.464 53.163 21.816 52.075 20.664C51.019 19.512 49.707 18.936 48.139 18.936C46.539 18.936 45.211 19.512 44.155 20.664C43.099 21.784 42.571 23.432 42.571 25.608C42.571 27.752 43.083 29.4 44.107 30.552C45.163 31.704 46.475 32.28 48.043 32.28ZM104.862 12.216L97.6135 39H88.5415L84.3175 21.624L79.9495 39H70.9255L63.6295 12.216H71.8375L75.6295 31.368L80.1415 12.216H88.8295L93.3895 31.272L97.1335 12.216H104.862ZM124.312 11.928C127.448 11.928 129.944 12.952 131.8 15C133.688 17.016 134.632 19.8 134.632 23.352V39H126.472V24.456C126.472 22.664 126.008 21.272 125.08 20.28C124.152 19.288 122.904 18.792 121.336 18.792C119.768 18.792 118.52 19.288 117.592 20.28C116.664 21.272 116.2 22.664 116.2 24.456V39H107.992V12.216H116.2V15.768C117.032 14.584 118.152 13.656 119.56 12.984C120.968 12.28 122.552 11.928 124.312 11.928ZM148.543 3.48V39H140.335V3.48H148.543ZM166.684 39.384C164.06 39.384 161.692 38.824 159.58 37.704C157.5 36.584 155.852 34.984 154.636 32.904C153.452 30.824 152.86 28.392 152.86 25.608C152.86 22.856 153.468 20.44 154.684 18.36C155.9 16.248 157.564 14.632 159.676 13.512C161.788 12.392 164.156 11.832 166.78 11.832C169.404 11.832 171.772 12.392 173.884 13.512C175.996 14.632 177.66 16.248 178.876 18.36C180.092 20.44 180.7 22.856 180.7 25.608C180.7 28.36 180.076 30.792 178.828 32.904C177.612 34.984 175.932 36.584 173.788 37.704C171.676 38.824 169.308 39.384 166.684 39.384ZM166.684 32.28C168.252 32.28 169.58 31.704 170.668 30.552C171.788 29.4 172.348 27.752 172.348 25.608C172.348 23.464 171.804 21.816 170.716 20.664C169.66 19.512 168.348 18.936 166.78 18.936C165.18 18.936 163.852 19.512 162.796 20.664C161.74 21.784 161.212 23.432 161.212 25.608C161.212 27.752 161.724 29.4 162.748 30.552C163.804 31.704 165.116 32.28 166.684 32.28ZM183.422 25.56C183.422 22.808 183.934 20.392 184.958 18.312C186.014 16.232 187.438 14.632 189.23 13.512C191.022 12.392 193.022 11.832 195.23 11.832C197.118 11.832 198.766 12.216 200.174 12.984C201.614 13.752 202.718 14.76 203.486 16.008V12.216H211.694V39H203.486V35.208C202.686 36.456 201.566 37.464 200.126 38.232C198.718 39 197.07 39.384 195.182 39.384C193.006 39.384 191.022 38.824 189.23 37.704C187.438 36.552 186.014 34.936 184.958 32.856C183.934 30.744 183.422 28.312 183.422 25.56ZM203.486 25.608C203.486 23.56 202.91 21.944 201.758 20.76C200.638 19.576 199.262 18.984 197.63 18.984C195.998 18.984 194.606 19.576 193.454 20.76C192.334 21.912 191.774 23.512 191.774 25.56C191.774 27.608 192.334 29.24 193.454 30.456C194.606 31.64 195.998 32.232 197.63 32.232C199.262 32.232 200.638 31.64 201.758 30.456C202.91 29.272 203.486 27.656 203.486 25.608ZM216 25.56C216 22.808 216.512 20.392 217.536 18.312C218.592 16.232 220.016 14.632 221.808 13.512C223.6 12.392 225.6 11.832 227.808 11.832C229.568 11.832 231.168 12.2 232.608 12.936C234.08 13.672 235.232 14.664 236.064 15.912V3.48H244.272V39H236.064V35.16C235.296 36.44 234.192 37.464 232.752 38.232C231.344 39 229.696 39.384 227.808 39.384C225.6 39.384 223.6 38.824 221.808 37.704C220.016 36.552 218.592 34.936 217.536 32.856C216.512 30.744 216 28.312 216 25.56ZM236.064 25.608C236.064 23.56 235.488 21.944 234.336 20.76C233.216 19.576 231.84 18.984 230.208 18.984C228.576 18.984 227.184 19.576 226.032 20.76C224.912 21.912 224.352 23.512 224.352 25.56C224.352 27.608 224.912 29.24 226.032 30.456C227.184 31.64 228.576 32.232 230.208 32.232C231.84 32.232 233.216 31.64 234.336 30.456C235.488 29.272 236.064 27.656 236.064 25.608ZM267.63 18.168H259.23L264.606 5.304H270.126L267.63 18.168ZM278.526 18.168H270.174L275.55 5.304H281.022L278.526 18.168ZM294.559 32.664H305.311V39H286.351V5.304H294.559V32.664ZM313.354 9.432C311.914 9.432 310.73 9.016 309.802 8.184C308.906 7.32 308.458 6.264 308.458 5.016C308.458 3.736 308.906 2.68 309.802 1.848C310.73 0.983997 311.914 0.551997 313.354 0.551997C314.762 0.551997 315.914 0.983997 316.81 1.848C317.738 2.68 318.202 3.736 318.202 5.016C318.202 6.264 317.738 7.32 316.81 8.184C315.914 9.016 314.762 9.432 313.354 9.432ZM317.434 12.216V39H309.226V12.216H317.434ZM331.59 16.008C332.358 14.76 333.462 13.752 334.902 12.984C336.342 12.216 337.99 11.832 339.846 11.832C342.054 11.832 344.054 12.392 345.846 13.512C347.638 14.632 349.046 16.232 350.07 18.312C351.126 20.392 351.654 22.808 351.654 25.56C351.654 28.312 351.126 30.744 350.07 32.856C349.046 34.936 347.638 36.552 345.846 37.704C344.054 38.824 342.054 39.384 339.846 39.384C337.958 39.384 336.31 39.016 334.902 38.28C333.494 37.512 332.39 36.504 331.59 35.256V39H323.382V3.48H331.59V16.008ZM343.302 25.56C343.302 23.512 342.726 21.912 341.574 20.76C340.454 19.576 339.062 18.984 337.398 18.984C335.766 18.984 334.374 19.576 333.222 20.76C332.102 21.944 331.542 23.56 331.542 25.608C331.542 27.656 332.102 29.272 333.222 30.456C334.374 31.64 335.766 32.232 337.398 32.232C339.03 32.232 340.422 31.64 341.574 30.456C342.726 29.24 343.302 27.608 343.302 25.56ZM382.408 12.216V39H374.2V35.352C373.368 36.536 372.232 37.496 370.792 38.232C369.384 38.936 367.816 39.288 366.088 39.288C364.04 39.288 362.232 38.84 360.664 37.944C359.096 37.016 357.88 35.688 357.016 33.96C356.152 32.232 355.72 30.2 355.72 27.864V12.216H363.88V26.76C363.88 28.552 364.344 29.944 365.272 30.936C366.2 31.928 367.448 32.424 369.016 32.424C370.616 32.424 371.88 31.928 372.808 30.936C373.736 29.944 374.2 28.552 374.2 26.76V12.216H382.408ZM396.512 16.68C397.472 15.208 398.672 14.056 400.112 13.224C401.552 12.36 403.152 11.928 404.912 11.928V20.616H402.656C400.608 20.616 399.072 21.064 398.048 21.96C397.024 22.824 396.512 24.36 396.512 26.568V39H388.304V12.216H396.512V16.68ZM412.963 9.432C411.523 9.432 410.339 9.016 409.411 8.184C408.515 7.32 408.067 6.264 408.067 5.016C408.067 3.736 408.515 2.68 409.411 1.848C410.339 0.983997 411.523 0.551997 412.963 0.551997C414.371 0.551997 415.523 0.983997 416.419 1.848C417.347 2.68 417.811 3.736 417.811 5.016C417.811 6.264 417.347 7.32 416.419 8.184C415.523 9.016 414.371 9.432 412.963 9.432ZM417.043 12.216V39H408.835V12.216H417.043ZM421.36 25.56C421.36 22.808 421.872 20.392 422.896 18.312C423.952 16.232 425.376 14.632 427.168 13.512C428.96 12.392 430.96 11.832 433.168 11.832C435.056 11.832 436.704 12.216 438.112 12.984C439.552 13.752 440.656 14.76 441.424 16.008V12.216H449.632V39H441.424V35.208C440.624 36.456 439.504 37.464 438.064 38.232C436.656 39 435.008 39.384 433.12 39.384C430.944 39.384 428.96 38.824 427.168 37.704C425.376 36.552 423.952 34.936 422.896 32.856C421.872 30.744 421.36 28.312 421.36 25.56ZM441.424 25.608C441.424 23.56 440.848 21.944 439.696 20.76C438.576 19.576 437.2 18.984 435.568 18.984C433.936 18.984 432.544 19.576 431.392 20.76C430.272 21.912 429.712 23.512 429.712 25.56C429.712 27.608 430.272 29.24 431.392 30.456C432.544 31.64 433.936 32.232 435.568 32.232C437.2 32.232 438.576 31.64 439.696 30.456C440.848 29.272 441.424 27.656 441.424 25.608ZM457.442 5.304H465.842L460.466 18.168H454.946L457.442 5.304ZM468.338 5.304H476.738L471.362 18.168H465.842L468.338 5.304ZM490.078 25.56C490.078 22.808 490.59 20.392 491.614 18.312C492.67 16.232 494.094 14.632 495.886 13.512C497.678 12.392 499.678 11.832 501.886 11.832C503.646 11.832 505.246 12.2 506.686 12.936C508.158 13.672 509.31 14.664 510.142 15.912V3.48H518.35V39H510.142V35.16C509.374 36.44 508.27 37.464 506.83 38.232C505.422 39 503.774 39.384 501.886 39.384C499.678 39.384 497.678 38.824 495.886 37.704C494.094 36.552 492.67 34.936 491.614 32.856C490.59 30.744 490.078 28.312 490.078 25.56ZM510.142 25.608C510.142 23.56 509.566 21.944 508.414 20.76C507.294 19.576 505.918 18.984 504.286 18.984C502.654 18.984 501.262 19.576 500.11 20.76C498.99 21.912 498.43 23.512 498.43 25.56C498.43 27.608 498.99 29.24 500.11 30.456C501.262 31.64 502.654 32.232 504.286 32.232C505.918 32.232 507.294 31.64 508.414 30.456C509.566 29.272 510.142 27.656 510.142 25.608ZM528.417 9.432C526.977 9.432 525.793 9.016 524.865 8.184C523.969 7.32 523.521 6.264 523.521 5.016C523.521 3.736 523.969 2.68 524.865 1.848C525.793 0.983997 526.977 0.551997 528.417 0.551997C529.825 0.551997 530.977 0.983997 531.873 1.848C532.801 2.68 533.265 3.736 533.265 5.016C533.265 6.264 532.801 7.32 531.873 8.184C530.977 9.016 529.825 9.432 528.417 9.432ZM532.497 12.216V39H524.289V12.216H532.497ZM26.656 88.152C26.656 90.104 26.208 91.896 25.312 93.528C24.416 95.128 23.04 96.424 21.184 97.416C19.328 98.408 17.024 98.904 14.272 98.904H9.184V111H0.976V77.304H14.272C16.96 77.304 19.232 77.768 21.088 78.696C22.944 79.624 24.336 80.904 25.264 82.536C26.192 84.168 26.656 86.04 26.656 88.152ZM13.648 92.376C15.216 92.376 16.384 92.008 17.152 91.272C17.92 90.536 18.304 89.496 18.304 88.152C18.304 86.808 17.92 85.768 17.152 85.032C16.384 84.296 15.216 83.928 13.648 83.928H9.184V92.376H13.648ZM39.1371 75.48V111H30.9291V75.48H39.1371ZM43.4534 97.56C43.4534 94.808 43.9654 92.392 44.9894 90.312C46.0454 88.232 47.4694 86.632 49.2614 85.512C51.0534 84.392 53.0534 83.832 55.2614 83.832C57.1494 83.832 58.7974 84.216 60.2054 84.984C61.6454 85.752 62.7494 86.76 63.5174 88.008V84.216H71.7254V111H63.5174V107.208C62.7174 108.456 61.5974 109.464 60.1574 110.232C58.7494 111 57.1014 111.384 55.2134 111.384C53.0374 111.384 51.0534 110.824 49.2614 109.704C47.4694 108.552 46.0454 106.936 44.9894 104.856C43.9654 102.744 43.4534 100.312 43.4534 97.56ZM63.5174 97.608C63.5174 95.56 62.9414 93.944 61.7894 92.76C60.6694 91.576 59.2934 90.984 57.6614 90.984C56.0294 90.984 54.6374 91.576 53.4854 92.76C52.3654 93.912 51.8054 95.512 51.8054 97.56C51.8054 99.608 52.3654 101.24 53.4854 102.456C54.6374 103.64 56.0294 104.232 57.6614 104.232C59.2934 104.232 60.6694 103.64 61.7894 102.456C62.9414 101.272 63.5174 99.656 63.5174 97.608ZM105.024 84.216L88.2235 123.72H79.3915L85.5355 110.088L74.6395 84.216H83.8075L89.9995 100.968L96.1435 84.216H105.024ZM130.356 111.336C127.892 111.336 125.684 110.936 123.732 110.136C121.78 109.336 120.212 108.152 119.028 106.584C117.876 105.016 117.268 103.128 117.204 100.92H125.94C126.068 102.168 126.5 103.128 127.236 103.8C127.972 104.44 128.932 104.76 130.116 104.76C131.332 104.76 132.292 104.488 132.996 103.944C133.7 103.368 134.052 102.584 134.052 101.592C134.052 100.76 133.764 100.072 133.188 99.528C132.644 98.984 131.956 98.536 131.124 98.184C130.324 97.832 129.172 97.432 127.668 96.984C125.492 96.312 123.716 95.64 122.34 94.968C120.964 94.296 119.78 93.304 118.788 91.992C117.796 90.68 117.3 88.968 117.3 86.856C117.3 83.72 118.436 81.272 120.708 79.512C122.98 77.72 125.94 76.824 129.588 76.824C133.3 76.824 136.292 77.72 138.564 79.512C140.836 81.272 142.052 83.736 142.212 86.904H133.332C133.268 85.816 132.868 84.968 132.132 84.36C131.396 83.72 130.452 83.4 129.299 83.4C128.308 83.4 127.508 83.672 126.9 84.216C126.292 84.728 125.988 85.48 125.988 86.472C125.988 87.56 126.5 88.408 127.523 89.016C128.548 89.624 130.148 90.28 132.324 90.984C134.5 91.72 136.26 92.424 137.604 93.096C138.98 93.768 140.164 94.744 141.156 96.024C142.148 97.304 142.644 98.952 142.644 100.968C142.644 102.888 142.148 104.632 141.156 106.2C140.196 107.768 138.788 109.016 136.932 109.944C135.076 110.872 132.884 111.336 130.356 111.336ZM162.623 104.04V111H158.447C155.471 111 153.151 110.28 151.487 108.84C149.823 107.368 148.991 104.984 148.991 101.688V91.032H145.727V84.216H148.991V77.688H157.199V84.216H162.575V91.032H157.199V101.784C157.199 102.584 157.391 103.16 157.775 103.512C158.159 103.864 158.799 104.04 159.695 104.04H162.623ZM179.387 111.384C176.763 111.384 174.395 110.824 172.283 109.704C170.203 108.584 168.555 106.984 167.339 104.904C166.155 102.824 165.563 100.392 165.563 97.608C165.563 94.856 166.171 92.44 167.387 90.36C168.603 88.248 170.267 86.632 172.379 85.512C174.491 84.392 176.859 83.832 179.483 83.832C182.107 83.832 184.475 84.392 186.587 85.512C188.699 86.632 190.363 88.248 191.579 90.36C192.795 92.44 193.403 94.856 193.403 97.608C193.403 100.36 192.779 102.792 191.531 104.904C190.315 106.984 188.635 108.584 186.491 109.704C184.379 110.824 182.011 111.384 179.387 111.384ZM179.387 104.28C180.955 104.28 182.283 103.704 183.371 102.552C184.491 101.4 185.051 99.752 185.051 97.608C185.051 95.464 184.507 93.816 183.419 92.664C182.363 91.512 181.051 90.936 179.483 90.936C177.883 90.936 176.555 91.512 175.499 92.664C174.443 93.784 173.915 95.432 173.915 97.608C173.915 99.752 174.427 101.4 175.451 102.552C176.507 103.704 177.819 104.28 179.387 104.28ZM205.965 88.68C206.925 87.208 208.125 86.056 209.565 85.224C211.005 84.36 212.605 83.928 214.365 83.928V92.616H212.109C210.061 92.616 208.525 93.064 207.501 93.96C206.477 94.824 205.965 96.36 205.965 98.568V111H197.757V84.216H205.965V88.68ZM243.536 97.176C243.536 97.944 243.489 98.744 243.393 99.576H224.817C224.945 101.24 225.473 102.52 226.401 103.416C227.361 104.28 228.529 104.712 229.905 104.712C231.953 104.712 233.377 103.848 234.177 102.12H242.913C242.465 103.88 241.649 105.464 240.465 106.872C239.313 108.28 237.857 109.384 236.097 110.184C234.337 110.984 232.369 111.384 230.193 111.384C227.569 111.384 225.233 110.824 223.185 109.704C221.137 108.584 219.537 106.984 218.385 104.904C217.233 102.824 216.657 100.392 216.657 97.608C216.657 94.824 217.217 92.392 218.337 90.312C219.489 88.232 221.089 86.632 223.137 85.512C225.185 84.392 227.537 83.832 230.193 83.832C232.785 83.832 235.089 84.376 237.105 85.464C239.121 86.552 240.689 88.104 241.809 90.12C242.961 92.136 243.536 94.488 243.536 97.176ZM235.137 95.016C235.137 93.608 234.657 92.488 233.697 91.656C232.737 90.824 231.537 90.408 230.097 90.408C228.721 90.408 227.553 90.808 226.593 91.608C225.665 92.408 225.089 93.544 224.865 95.016H235.137ZM256.407 97.56C256.407 94.808 256.919 92.392 257.943 90.312C258.999 88.232 260.423 86.632 262.215 85.512C264.007 84.392 266.007 83.832 268.215 83.832C270.103 83.832 271.751 84.216 273.159 84.984C274.599 85.752 275.703 86.76 276.471 88.008V84.216H284.679V111H276.471V107.208C275.671 108.456 274.551 109.464 273.111 110.232C271.703 111 270.055 111.384 268.167 111.384C265.991 111.384 264.007 110.824 262.215 109.704C260.423 108.552 258.999 106.936 257.943 104.856C256.919 102.744 256.407 100.312 256.407 97.56ZM276.471 97.608C276.471 95.56 275.895 93.944 274.743 92.76C273.623 91.576 272.247 90.984 270.615 90.984C268.983 90.984 267.591 91.576 266.439 92.76C265.319 93.912 264.759 95.512 264.759 97.56C264.759 99.608 265.319 101.24 266.439 102.456C267.591 103.64 268.983 104.232 270.615 104.232C272.247 104.232 273.623 103.64 274.743 102.456C275.895 101.272 276.471 99.656 276.471 97.608ZM305.545 104.04V111H301.369C298.393 111 296.073 110.28 294.409 108.84C292.745 107.368 291.913 104.984 291.913 101.688V91.032H288.649V84.216H291.913V77.688H300.121V84.216H305.497V91.032H300.121V101.784C300.121 102.584 300.313 103.16 300.697 103.512C301.081 103.864 301.721 104.04 302.617 104.04H305.545ZM308.485 97.56C308.485 94.808 308.997 92.392 310.021 90.312C311.077 88.232 312.501 86.632 314.293 85.512C316.085 84.392 318.085 83.832 320.293 83.832C322.181 83.832 323.829 84.216 325.237 84.984C326.677 85.752 327.781 86.76 328.549 88.008V84.216H336.757V111H328.549V107.208C327.749 108.456 326.629 109.464 325.189 110.232C323.781 111 322.133 111.384 320.245 111.384C318.069 111.384 316.085 110.824 314.293 109.704C312.501 108.552 311.077 106.936 310.021 104.856C308.997 102.744 308.485 100.312 308.485 97.56ZM328.549 97.608C328.549 95.56 327.973 93.944 326.821 92.76C325.701 91.576 324.325 90.984 322.693 90.984C321.061 90.984 319.669 91.576 318.517 92.76C317.397 93.912 316.837 95.512 316.837 97.56C316.837 99.608 317.397 101.24 318.517 102.456C319.669 103.64 321.061 104.232 322.693 104.232C324.325 104.232 325.701 103.64 326.821 102.456C327.973 101.272 328.549 99.656 328.549 97.608ZM369.143 84.216V111H360.935V107.352C360.103 108.536 358.967 109.496 357.527 110.232C356.119 110.936 354.551 111.288 352.823 111.288C350.775 111.288 348.967 110.84 347.399 109.944C345.831 109.016 344.615 107.688 343.751 105.96C342.887 104.232 342.455 102.2 342.455 99.864V84.216H350.615V98.76C350.615 100.552 351.079 101.944 352.007 102.936C352.935 103.928 354.183 104.424 355.751 104.424C357.351 104.424 358.615 103.928 359.543 102.936C360.471 101.944 360.935 100.552 360.935 98.76V84.216H369.143ZM406.186 105.048H393.61L391.594 111H383.002L395.194 77.304H404.698L416.89 111H408.202L406.186 105.048ZM404.074 98.712L399.898 86.376L395.77 98.712H404.074ZM428.809 88.008C429.609 86.76 430.713 85.752 432.121 84.984C433.529 84.216 435.177 83.832 437.065 83.832C439.273 83.832 441.273 84.392 443.065 85.512C444.857 86.632 446.265 88.232 447.289 90.312C448.345 92.392 448.873 94.808 448.873 97.56C448.873 100.312 448.345 102.744 447.289 104.856C446.265 106.936 444.857 108.552 443.065 109.704C441.273 110.824 439.273 111.384 437.065 111.384C435.209 111.384 433.561 111 432.121 110.232C430.713 109.464 429.609 108.472 428.809 107.256V123.768H420.601V84.216H428.809V88.008ZM440.521 97.56C440.521 95.512 439.945 93.912 438.793 92.76C437.673 91.576 436.281 90.984 434.617 90.984C432.985 90.984 431.593 91.576 430.441 92.76C429.321 93.944 428.761 95.56 428.761 97.608C428.761 99.656 429.321 101.272 430.441 102.456C431.593 103.64 432.985 104.232 434.617 104.232C436.249 104.232 437.641 103.64 438.793 102.456C439.945 101.24 440.521 99.608 440.521 97.56ZM461.387 88.008C462.187 86.76 463.291 85.752 464.699 84.984C466.107 84.216 467.755 83.832 469.643 83.832C471.851 83.832 473.851 84.392 475.643 85.512C477.435 86.632 478.843 88.232 479.867 90.312C480.923 92.392 481.451 94.808 481.451 97.56C481.451 100.312 480.923 102.744 479.867 104.856C478.843 106.936 477.435 108.552 475.643 109.704C473.851 110.824 471.851 111.384 469.643 111.384C467.787 111.384 466.139 111 464.699 110.232C463.291 109.464 462.187 108.472 461.387 107.256V123.768H453.179V84.216H461.387V88.008ZM473.099 97.56C473.099 95.512 472.523 93.912 471.371 92.76C470.251 91.576 468.859 90.984 467.195 90.984C465.563 90.984 464.171 91.576 463.019 92.76C461.899 93.944 461.339 95.56 461.339 97.608C461.339 99.656 461.899 101.272 463.019 102.456C464.171 103.64 465.563 104.232 467.195 104.232C468.827 104.232 470.219 103.64 471.371 102.456C472.523 101.24 473.099 99.608 473.099 97.56ZM508.121 111.336C505.657 111.336 503.449 110.936 501.497 110.136C499.545 109.336 497.977 108.152 496.793 106.584C495.641 105.016 495.033 103.128 494.969 100.92H503.705C503.833 102.168 504.265 103.128 505.001 103.8C505.737 104.44 506.697 104.76 507.881 104.76C509.097 104.76 510.057 104.488 510.761 103.944C511.465 103.368 511.817 102.584 511.817 101.592C511.817 100.76 511.529 100.072 510.953 99.528C510.409 98.984 509.721 98.536 508.889 98.184C508.089 97.832 506.937 97.432 505.433 96.984C503.257 96.312 501.481 95.64 500.105 94.968C498.729 94.296 497.545 93.304 496.553 91.992C495.561 90.68 495.065 88.968 495.065 86.856C495.065 83.72 496.201 81.272 498.473 79.512C500.745 77.72 503.705 76.824 507.353 76.824C511.065 76.824 514.057 77.72 516.329 79.512C518.601 81.272 519.817 83.736 519.977 86.904H511.097C511.033 85.816 510.633 84.968 509.897 84.36C509.161 83.72 508.217 83.4 507.065 83.4C506.073 83.4 505.273 83.672 504.665 84.216C504.057 84.728 503.753 85.48 503.753 86.472C503.753 87.56 504.265 88.408 505.289 89.016C506.313 89.624 507.913 90.28 510.089 90.984C512.265 91.72 514.025 92.424 515.369 93.096C516.745 93.768 517.929 94.744 518.921 96.024C519.913 97.304 520.409 98.952 520.409 100.968C520.409 102.888 519.913 104.632 518.921 106.2C517.961 107.768 516.553 109.016 514.697 109.944C512.841 110.872 510.649 111.336 508.121 111.336ZM540.388 104.04V111H536.212C533.236 111 530.916 110.28 529.252 108.84C527.588 107.368 526.756 104.984 526.756 101.688V91.032H523.492V84.216H526.756V77.688H534.964V84.216H540.34V91.032H534.964V101.784C534.964 102.584 535.156 103.16 535.54 103.512C535.924 103.864 536.564 104.04 537.46 104.04H540.388ZM557.152 111.384C554.528 111.384 552.16 110.824 550.048 109.704C547.968 108.584 546.32 106.984 545.104 104.904C543.92 102.824 543.328 100.392 543.328 97.608C543.328 94.856 543.936 92.44 545.152 90.36C546.368 88.248 548.032 86.632 550.144 85.512C552.256 84.392 554.624 83.832 557.248 83.832C559.872 83.832 562.24 84.392 564.352 85.512C566.464 86.632 568.128 88.248 569.344 90.36C570.56 92.44 571.168 94.856 571.168 97.608C571.168 100.36 570.544 102.792 569.296 104.904C568.08 106.984 566.4 108.584 564.256 109.704C562.144 110.824 559.776 111.384 557.152 111.384ZM557.152 104.28C558.72 104.28 560.048 103.704 561.136 102.552C562.256 101.4 562.816 99.752 562.816 97.608C562.816 95.464 562.272 93.816 561.184 92.664C560.128 91.512 558.816 90.936 557.248 90.936C555.648 90.936 554.32 91.512 553.264 92.664C552.208 93.784 551.68 95.432 551.68 97.608C551.68 99.752 552.192 101.4 553.216 102.552C554.272 103.704 555.584 104.28 557.152 104.28ZM583.731 88.68C584.691 87.208 585.891 86.056 587.331 85.224C588.771 84.36 590.371 83.928 592.131 83.928V92.616H589.875C587.827 92.616 586.291 93.064 585.267 93.96C584.243 94.824 583.731 96.36 583.731 98.568V111H575.523V84.216H583.731V88.68ZM621.302 97.176C621.302 97.944 621.254 98.744 621.158 99.576H602.582C602.71 101.24 603.238 102.52 604.166 103.416C605.126 104.28 606.294 104.712 607.67 104.712C609.718 104.712 611.142 103.848 611.942 102.12H620.678C620.23 103.88 619.414 105.464 618.23 106.872C617.078 108.28 615.622 109.384 613.862 110.184C612.102 110.984 610.134 111.384 607.958 111.384C605.334 111.384 602.998 110.824 600.95 109.704C598.902 108.584 597.302 106.984 596.15 104.904C594.998 102.824 594.422 100.392 594.422 97.608C594.422 94.824 594.982 92.392 596.102 90.312C597.254 88.232 598.854 86.632 600.902 85.512C602.95 84.392 605.302 83.832 607.958 83.832C610.55 83.832 612.854 84.376 614.87 85.464C616.886 86.552 618.454 88.104 619.574 90.12C620.726 92.136 621.302 94.488 621.302 97.176ZM612.902 95.016C612.902 93.608 612.422 92.488 611.462 91.656C610.502 90.824 609.302 90.408 607.862 90.408C606.486 90.408 605.318 90.808 604.358 91.608C603.43 92.408 602.854 93.544 602.63 95.016H612.902Z" fill="#080808"/>
</svg>
