<svg width="480" height="197" viewBox="0 0 480 197" fill="none" xmlns="http://www.w3.org/2000/svg">
<path d="M32.12 39H23.912L10.184 18.216V39H1.976V5.304H10.184L23.912 26.184V5.304H32.12V39ZM42.1978 9.432C40.7578 9.432 39.5738 9.016 38.6458 8.184C37.7498 7.32 37.3018 6.264 37.3018 5.016C37.3018 3.736 37.7498 2.68 38.6458 1.848C39.5738 0.983997 40.7578 0.551997 42.1978 0.551997C43.6058 0.551997 44.7578 0.983997 45.6538 1.848C46.5818 2.68 47.0458 3.736 47.0458 5.016C47.0458 6.264 46.5818 7.32 45.6538 8.184C44.7578 9.016 43.6058 9.432 42.1978 9.432ZM46.2778 12.216V39H38.0698V12.216H46.2778ZM68.594 39L60.434 27.768V39H52.226V3.48H60.434V23.112L68.546 12.216H78.674L67.538 25.656L78.77 39H68.594ZM116.074 11.928C119.402 11.928 122.042 12.936 123.994 14.952C125.978 16.968 126.97 19.768 126.97 23.352V39H118.81V24.456C118.81 22.728 118.346 21.4 117.418 20.472C116.522 19.512 115.274 19.032 113.674 19.032C112.074 19.032 110.81 19.512 109.882 20.472C108.986 21.4 108.538 22.728 108.538 24.456V39H100.378V24.456C100.378 22.728 99.9139 21.4 98.9859 20.472C98.0899 19.512 96.8419 19.032 95.2419 19.032C93.6419 19.032 92.3779 19.512 91.4499 20.472C90.5539 21.4 90.1059 22.728 90.1059 24.456V39H81.8979V12.216H90.1059V15.576C90.9379 14.456 92.0259 13.576 93.3699 12.936C94.7139 12.264 96.2339 11.928 97.9299 11.928C99.9459 11.928 101.738 12.36 103.306 13.224C104.906 14.088 106.154 15.32 107.05 16.92C107.978 15.448 109.242 14.248 110.842 13.32C112.442 12.392 114.186 11.928 116.074 11.928ZM131.078 25.56C131.078 22.808 131.59 20.392 132.614 18.312C133.67 16.232 135.094 14.632 136.886 13.512C138.678 12.392 140.678 11.832 142.886 11.832C144.774 11.832 146.422 12.216 147.83 12.984C149.27 13.752 150.374 14.76 151.142 16.008V12.216H159.35V39H151.142V35.208C150.342 36.456 149.222 37.464 147.782 38.232C146.374 39 144.726 39.384 142.838 39.384C140.662 39.384 138.678 38.824 136.886 37.704C135.094 36.552 133.67 34.936 132.614 32.856C131.59 30.744 131.078 28.312 131.078 25.56ZM151.142 25.608C151.142 23.56 150.566 21.944 149.414 20.76C148.294 19.576 146.918 18.984 145.286 18.984C143.654 18.984 142.262 19.576 141.11 20.76C139.99 21.912 139.43 23.512 139.43 25.56C139.43 27.608 139.99 29.24 141.11 30.456C142.262 31.64 143.654 32.232 145.286 32.232C146.918 32.232 148.294 31.64 149.414 30.456C150.566 29.272 151.142 27.656 151.142 25.608ZM180.217 32.04V39H176.041C173.065 39 170.745 38.28 169.081 36.84C167.417 35.368 166.585 32.984 166.585 29.688V19.032H163.321V12.216H166.585V5.688H174.793V12.216H180.169V19.032H174.793V29.784C174.793 30.584 174.985 31.16 175.369 31.512C175.753 31.864 176.393 32.04 177.289 32.04H180.217ZM188.917 9.432C187.477 9.432 186.293 9.016 185.365 8.184C184.469 7.32 184.021 6.264 184.021 5.016C184.021 3.736 184.469 2.68 185.365 1.848C186.293 0.983997 187.477 0.551997 188.917 0.551997C190.325 0.551997 191.477 0.983997 192.373 1.848C193.301 2.68 193.765 3.736 193.765 5.016C193.765 6.264 193.301 7.32 192.373 8.184C191.477 9.016 190.325 9.432 188.917 9.432ZM192.997 12.216V39H184.789V12.216H192.997ZM217.325 32.664H228.077V39H209.117V5.304H217.325V32.664ZM236.12 9.432C234.68 9.432 233.496 9.016 232.568 8.184C231.672 7.32 231.224 6.264 231.224 5.016C231.224 3.736 231.672 2.68 232.568 1.848C233.496 0.983997 234.68 0.551997 236.12 0.551997C237.528 0.551997 238.68 0.983997 239.576 1.848C240.504 2.68 240.968 3.736 240.968 5.016C240.968 6.264 240.504 7.32 239.576 8.184C238.68 9.016 237.528 9.432 236.12 9.432ZM240.2 12.216V39H231.992V12.216H240.2ZM254.356 16.008C255.124 14.76 256.228 13.752 257.668 12.984C259.108 12.216 260.756 11.832 262.612 11.832C264.82 11.832 266.82 12.392 268.612 13.512C270.404 14.632 271.812 16.232 272.836 18.312C273.892 20.392 274.42 22.808 274.42 25.56C274.42 28.312 273.892 30.744 272.836 32.856C271.812 34.936 270.404 36.552 268.612 37.704C266.82 38.824 264.82 39.384 262.612 39.384C260.724 39.384 259.076 39.016 257.668 38.28C256.26 37.512 255.156 36.504 254.356 35.256V39H246.148V3.48H254.356V16.008ZM266.068 25.56C266.068 23.512 265.492 21.912 264.34 20.76C263.22 19.576 261.828 18.984 260.164 18.984C258.532 18.984 257.14 19.576 255.988 20.76C254.868 21.944 254.308 23.56 254.308 25.608C254.308 27.656 254.868 29.272 255.988 30.456C257.14 31.64 258.532 32.232 260.164 32.232C261.796 32.232 263.188 31.64 264.34 30.456C265.492 29.24 266.068 27.608 266.068 25.56ZM305.174 12.216V39H296.966V35.352C296.134 36.536 294.998 37.496 293.558 38.232C292.15 38.936 290.582 39.288 288.854 39.288C286.806 39.288 284.998 38.84 283.43 37.944C281.862 37.016 280.646 35.688 279.782 33.96C278.918 32.232 278.486 30.2 278.486 27.864V12.216H286.646V26.76C286.646 28.552 287.11 29.944 288.038 30.936C288.966 31.928 290.214 32.424 291.782 32.424C293.382 32.424 294.646 31.928 295.574 30.936C296.502 29.944 296.966 28.552 296.966 26.76V12.216H305.174ZM319.278 16.68C320.238 15.208 321.438 14.056 322.878 13.224C324.318 12.36 325.918 11.928 327.678 11.928V20.616H325.422C323.374 20.616 321.838 21.064 320.814 21.96C319.79 22.824 319.278 24.36 319.278 26.568V39H311.07V12.216H319.278V16.68ZM329.969 25.56C329.969 22.808 330.481 20.392 331.505 18.312C332.561 16.232 333.985 14.632 335.777 13.512C337.569 12.392 339.569 11.832 341.777 11.832C343.665 11.832 345.313 12.216 346.721 12.984C348.161 13.752 349.265 14.76 350.033 16.008V12.216H358.241V39H350.033V35.208C349.233 36.456 348.113 37.464 346.673 38.232C345.265 39 343.617 39.384 341.729 39.384C339.553 39.384 337.569 38.824 335.777 37.704C333.985 36.552 332.561 34.936 331.505 32.856C330.481 30.744 329.969 28.312 329.969 25.56ZM350.033 25.608C350.033 23.56 349.457 21.944 348.305 20.76C347.185 19.576 345.809 18.984 344.177 18.984C342.545 18.984 341.153 19.576 340.001 20.76C338.881 21.912 338.321 23.512 338.321 25.56C338.321 27.608 338.881 29.24 340.001 30.456C341.153 31.64 342.545 32.232 344.177 32.232C345.809 32.232 347.185 31.64 348.305 30.456C349.457 29.272 350.033 27.656 350.033 25.608ZM380.499 11.928C383.635 11.928 386.131 12.952 387.987 15C389.875 17.016 390.819 19.8 390.819 23.352V39H382.659V24.456C382.659 22.664 382.195 21.272 381.267 20.28C380.339 19.288 379.091 18.792 377.523 18.792C375.955 18.792 374.707 19.288 373.779 20.28C372.851 21.272 372.387 22.664 372.387 24.456V39H364.179V12.216H372.387V15.768C373.219 14.584 374.339 13.656 375.747 12.984C377.155 12.28 378.739 11.928 380.499 11.928ZM430.699 11.928C434.027 11.928 436.667 12.936 438.619 14.952C440.603 16.968 441.595 19.768 441.595 23.352V39H433.435V24.456C433.435 22.728 432.971 21.4 432.043 20.472C431.147 19.512 429.899 19.032 428.299 19.032C426.699 19.032 425.435 19.512 424.507 20.472C423.611 21.4 423.163 22.728 423.163 24.456V39H415.003V24.456C415.003 22.728 414.539 21.4 413.611 20.472C412.715 19.512 411.467 19.032 409.867 19.032C408.267 19.032 407.003 19.512 406.075 20.472C405.179 21.4 404.731 22.728 404.731 24.456V39H396.523V12.216H404.731V15.576C405.563 14.456 406.651 13.576 407.995 12.936C409.339 12.264 410.859 11.928 412.555 11.928C414.571 11.928 416.363 12.36 417.931 13.224C419.531 14.088 420.779 15.32 421.675 16.92C422.603 15.448 423.867 14.248 425.467 13.32C427.067 12.392 428.811 11.928 430.699 11.928ZM473.783 12.216V39H465.575V35.352C464.743 36.536 463.607 37.496 462.167 38.232C460.759 38.936 459.191 39.288 457.463 39.288C455.415 39.288 453.607 38.84 452.039 37.944C450.471 37.016 449.255 35.688 448.391 33.96C447.527 32.232 447.095 30.2 447.095 27.864V12.216H455.255V26.76C455.255 28.552 455.719 29.944 456.647 30.936C457.575 31.928 458.823 32.424 460.391 32.424C461.991 32.424 463.255 31.928 464.183 30.936C465.111 29.944 465.575 28.552 465.575 26.76V12.216H473.783ZM14.6 77.304C18.152 77.304 21.256 78.008 23.912 79.416C26.568 80.824 28.616 82.808 30.056 85.368C31.528 87.896 32.264 90.824 32.264 94.152C32.264 97.448 31.528 100.376 30.056 102.936C28.616 105.496 26.552 107.48 23.864 108.888C21.208 110.296 18.12 111 14.6 111H1.976V77.304H14.6ZM14.072 103.896C17.176 103.896 19.592 103.048 21.32 101.352C23.048 99.656 23.912 97.256 23.912 94.152C23.912 91.048 23.048 88.632 21.32 86.904C19.592 85.176 17.176 84.312 14.072 84.312H10.184V103.896H14.072ZM35.219 97.56C35.219 94.808 35.731 92.392 36.755 90.312C37.811 88.232 39.235 86.632 41.027 85.512C42.819 84.392 44.819 83.832 47.027 83.832C48.915 83.832 50.563 84.216 51.971 84.984C53.411 85.752 54.515 86.76 55.283 88.008V84.216H63.491V111H55.283V107.208C54.483 108.456 53.363 109.464 51.923 110.232C50.515 111 48.867 111.384 46.979 111.384C44.803 111.384 42.819 110.824 41.027 109.704C39.235 108.552 37.811 106.936 36.755 104.856C35.731 102.744 35.219 100.312 35.219 97.56ZM55.283 97.608C55.283 95.56 54.707 93.944 53.555 92.76C52.435 91.576 51.059 90.984 49.427 90.984C47.795 90.984 46.403 91.576 45.251 92.76C44.131 93.912 43.571 95.512 43.571 97.56C43.571 99.608 44.131 101.24 45.251 102.456C46.403 103.64 47.795 104.232 49.427 104.232C51.059 104.232 52.435 103.64 53.555 102.456C54.707 101.272 55.283 99.656 55.283 97.608ZM77.6371 75.48V111H69.4291V75.48H77.6371ZM81.9534 97.56C81.9534 94.808 82.4654 92.392 83.4894 90.312C84.5454 88.232 85.9694 86.632 87.7614 85.512C89.5534 84.392 91.5534 83.832 93.7614 83.832C95.6494 83.832 97.2974 84.216 98.7054 84.984C100.145 85.752 101.249 86.76 102.017 88.008V84.216H110.225V111H102.017V107.208C101.217 108.456 100.097 109.464 98.6574 110.232C97.2494 111 95.6014 111.384 93.7134 111.384C91.5374 111.384 89.5534 110.824 87.7614 109.704C85.9694 108.552 84.5454 106.936 83.4894 104.856C82.4654 102.744 81.9534 100.312 81.9534 97.56ZM102.017 97.608C102.017 95.56 101.441 93.944 100.289 92.76C99.1694 91.576 97.7934 90.984 96.1614 90.984C94.5294 90.984 93.1374 91.576 91.9854 92.76C90.8654 93.912 90.3054 95.512 90.3054 97.56C90.3054 99.608 90.8654 101.24 91.9854 102.456C93.1374 103.64 94.5294 104.232 96.1614 104.232C97.7934 104.232 99.1694 103.64 100.289 102.456C101.441 101.272 102.017 99.656 102.017 97.608ZM150.34 83.928C153.668 83.928 156.308 84.936 158.26 86.952C160.244 88.968 161.236 91.768 161.236 95.352V111H153.076V96.456C153.076 94.728 152.612 93.4 151.684 92.472C150.788 91.512 149.54 91.032 147.94 91.032C146.34 91.032 145.076 91.512 144.148 92.472C143.252 93.4 142.804 94.728 142.804 96.456V111H134.644V96.456C134.644 94.728 134.18 93.4 133.252 92.472C132.356 91.512 131.108 91.032 129.508 91.032C127.908 91.032 126.644 91.512 125.716 92.472C124.82 93.4 124.372 94.728 124.372 96.456V111H116.164V84.216H124.372V87.576C125.204 86.456 126.292 85.576 127.636 84.936C128.98 84.264 130.5 83.928 132.196 83.928C134.212 83.928 136.004 84.36 137.572 85.224C139.172 86.088 140.42 87.32 141.316 88.92C142.244 87.448 143.508 86.248 145.108 85.32C146.708 84.392 148.452 83.928 150.34 83.928ZM187.324 83.832C189.212 83.832 190.86 84.216 192.268 84.984C193.708 85.752 194.812 86.76 195.58 88.008V84.216H203.788V110.952C203.788 113.416 203.292 115.64 202.3 117.624C201.34 119.64 199.852 121.24 197.836 122.424C195.852 123.608 193.372 124.2 190.396 124.2C186.428 124.2 183.212 123.256 180.748 121.368C178.284 119.512 176.876 116.984 176.524 113.784H184.636C184.892 114.808 185.5 115.608 186.46 116.184C187.42 116.792 188.604 117.096 190.012 117.096C191.708 117.096 193.052 116.6 194.044 115.608C195.068 114.648 195.58 113.096 195.58 110.952V107.16C194.78 108.408 193.676 109.432 192.268 110.232C190.86 111 189.212 111.384 187.324 111.384C185.116 111.384 183.116 110.824 181.324 109.704C179.532 108.552 178.108 106.936 177.052 104.856C176.028 102.744 175.516 100.312 175.516 97.56C175.516 94.808 176.028 92.392 177.052 90.312C178.108 88.232 179.532 86.632 181.324 85.512C183.116 84.392 185.116 83.832 187.324 83.832ZM195.58 97.608C195.58 95.56 195.004 93.944 193.852 92.76C192.732 91.576 191.356 90.984 189.724 90.984C188.092 90.984 186.7 91.576 185.548 92.76C184.428 93.912 183.868 95.512 183.868 97.56C183.868 99.608 184.428 101.24 185.548 102.456C186.7 103.64 188.092 104.232 189.724 104.232C191.356 104.232 192.732 103.64 193.852 102.456C195.004 101.272 195.58 99.656 195.58 97.608ZM234.974 97.176C234.974 97.944 234.926 98.744 234.83 99.576H216.254C216.382 101.24 216.91 102.52 217.838 103.416C218.798 104.28 219.966 104.712 221.342 104.712C223.39 104.712 224.814 103.848 225.614 102.12H234.35C233.902 103.88 233.086 105.464 231.902 106.872C230.75 108.28 229.294 109.384 227.534 110.184C225.774 110.984 223.806 111.384 221.63 111.384C219.006 111.384 216.67 110.824 214.622 109.704C212.574 108.584 210.974 106.984 209.822 104.904C208.67 102.824 208.094 100.392 208.094 97.608C208.094 94.824 208.654 92.392 209.774 90.312C210.926 88.232 212.526 86.632 214.574 85.512C216.622 84.392 218.974 83.832 221.63 83.832C224.222 83.832 226.526 84.376 228.542 85.464C230.558 86.552 232.126 88.104 233.246 90.12C234.398 92.136 234.974 94.488 234.974 97.176ZM226.574 95.016C226.574 93.608 226.094 92.488 225.134 91.656C224.174 90.824 222.974 90.408 221.534 90.408C220.158 90.408 218.99 90.808 218.03 91.608C217.102 92.408 216.526 93.544 216.302 95.016H226.574ZM255.624 83.928C258.76 83.928 261.256 84.952 263.112 87C265 89.016 265.944 91.8 265.944 95.352V111H257.784V96.456C257.784 94.664 257.32 93.272 256.392 92.28C255.464 91.288 254.216 90.792 252.648 90.792C251.08 90.792 249.832 91.288 248.904 92.28C247.976 93.272 247.512 94.664 247.512 96.456V111H239.304V84.216H247.512V87.768C248.344 86.584 249.464 85.656 250.872 84.984C252.28 84.28 253.864 83.928 255.624 83.928ZM281.824 83.832C283.712 83.832 285.36 84.216 286.768 84.984C288.208 85.752 289.312 86.76 290.08 88.008V84.216H298.288V110.952C298.288 113.416 297.792 115.64 296.8 117.624C295.84 119.64 294.352 121.24 292.336 122.424C290.352 123.608 287.872 124.2 284.896 124.2C280.928 124.2 277.712 123.256 275.248 121.368C272.784 119.512 271.376 116.984 271.024 113.784H279.136C279.392 114.808 280 115.608 280.96 116.184C281.92 116.792 283.104 117.096 284.512 117.096C286.208 117.096 287.552 116.6 288.544 115.608C289.568 114.648 290.08 113.096 290.08 110.952V107.16C289.28 108.408 288.176 109.432 286.768 110.232C285.36 111 283.712 111.384 281.824 111.384C279.616 111.384 277.616 110.824 275.824 109.704C274.032 108.552 272.608 106.936 271.552 104.856C270.528 102.744 270.016 100.312 270.016 97.56C270.016 94.808 270.528 92.392 271.552 90.312C272.608 88.232 274.032 86.632 275.824 85.512C277.616 84.392 279.616 83.832 281.824 83.832ZM290.08 97.608C290.08 95.56 289.504 93.944 288.352 92.76C287.232 91.576 285.856 90.984 284.224 90.984C282.592 90.984 281.2 91.576 280.048 92.76C278.928 93.912 278.368 95.512 278.368 97.56C278.368 99.608 278.928 101.24 280.048 102.456C281.2 103.64 282.592 104.232 284.224 104.232C285.856 104.232 287.232 103.64 288.352 102.456C289.504 101.272 290.08 99.656 290.08 97.608ZM314.402 83.832C316.29 83.832 317.938 84.216 319.346 84.984C320.786 85.752 321.89 86.76 322.658 88.008V84.216H330.866V110.952C330.866 113.416 330.37 115.64 329.378 117.624C328.418 119.64 326.93 121.24 324.914 122.424C322.93 123.608 320.45 124.2 317.474 124.2C313.506 124.2 310.29 123.256 307.826 121.368C305.362 119.512 303.954 116.984 303.602 113.784H311.714C311.97 114.808 312.578 115.608 313.538 116.184C314.498 116.792 315.682 117.096 317.09 117.096C318.786 117.096 320.13 116.6 321.122 115.608C322.146 114.648 322.658 113.096 322.658 110.952V107.16C321.858 108.408 320.754 109.432 319.346 110.232C317.938 111 316.29 111.384 314.402 111.384C312.194 111.384 310.194 110.824 308.402 109.704C306.61 108.552 305.186 106.936 304.13 104.856C303.106 102.744 302.594 100.312 302.594 97.56C302.594 94.808 303.106 92.392 304.13 90.312C305.186 88.232 306.61 86.632 308.402 85.512C310.194 84.392 312.194 83.832 314.402 83.832ZM322.658 97.608C322.658 95.56 322.082 93.944 320.93 92.76C319.81 91.576 318.434 90.984 316.802 90.984C315.17 90.984 313.778 91.576 312.626 92.76C311.506 93.912 310.946 95.512 310.946 97.56C310.946 99.608 311.506 101.24 312.626 102.456C313.778 103.64 315.17 104.232 316.802 104.232C318.434 104.232 319.81 103.64 320.93 102.456C322.082 101.272 322.658 99.656 322.658 97.608ZM335.172 97.56C335.172 94.808 335.684 92.392 336.708 90.312C337.764 88.232 339.188 86.632 340.98 85.512C342.772 84.392 344.772 83.832 346.98 83.832C348.868 83.832 350.516 84.216 351.924 84.984C353.364 85.752 354.468 86.76 355.236 88.008V84.216H363.444V111H355.236V107.208C354.436 108.456 353.316 109.464 351.876 110.232C350.468 111 348.82 111.384 346.932 111.384C344.756 111.384 342.772 110.824 340.98 109.704C339.188 108.552 337.764 106.936 336.708 104.856C335.684 102.744 335.172 100.312 335.172 97.56ZM355.236 97.608C355.236 95.56 354.66 93.944 353.508 92.76C352.388 91.576 351.012 90.984 349.38 90.984C347.748 90.984 346.356 91.576 345.204 92.76C344.084 93.912 343.524 95.512 343.524 97.56C343.524 99.608 344.084 101.24 345.204 102.456C346.356 103.64 347.748 104.232 349.38 104.232C351.012 104.232 352.388 103.64 353.508 102.456C354.66 101.272 355.236 99.656 355.236 97.608ZM403.558 83.928C406.886 83.928 409.526 84.936 411.478 86.952C413.462 88.968 414.454 91.768 414.454 95.352V111H406.294V96.456C406.294 94.728 405.83 93.4 404.902 92.472C404.006 91.512 402.758 91.032 401.158 91.032C399.558 91.032 398.294 91.512 397.366 92.472C396.47 93.4 396.022 94.728 396.022 96.456V111H387.862V96.456C387.862 94.728 387.398 93.4 386.47 92.472C385.574 91.512 384.326 91.032 382.726 91.032C381.126 91.032 379.862 91.512 378.934 92.472C378.038 93.4 377.59 94.728 377.59 96.456V111H369.382V84.216H377.59V87.576C378.422 86.456 379.51 85.576 380.854 84.936C382.198 84.264 383.718 83.928 385.414 83.928C387.43 83.928 389.222 84.36 390.79 85.224C392.39 86.088 393.638 87.32 394.534 88.92C395.462 87.448 396.726 86.248 398.326 85.32C399.926 84.392 401.67 83.928 403.558 83.928ZM418.563 97.56C418.563 94.808 419.075 92.392 420.099 90.312C421.155 88.232 422.579 86.632 424.371 85.512C426.163 84.392 428.163 83.832 430.371 83.832C432.259 83.832 433.907 84.216 435.315 84.984C436.755 85.752 437.859 86.76 438.627 88.008V84.216H446.835V111H438.627V107.208C437.827 108.456 436.707 109.464 435.267 110.232C433.859 111 432.211 111.384 430.323 111.384C428.147 111.384 426.163 110.824 424.371 109.704C422.579 108.552 421.155 106.936 420.099 104.856C419.075 102.744 418.563 100.312 418.563 97.56ZM438.627 97.608C438.627 95.56 438.051 93.944 436.899 92.76C435.779 91.576 434.403 90.984 432.771 90.984C431.139 90.984 429.747 91.576 428.595 92.76C427.475 93.912 426.915 95.512 426.915 97.56C426.915 99.608 427.475 101.24 428.595 102.456C429.747 103.64 431.139 104.232 432.771 104.232C434.403 104.232 435.779 103.64 436.899 102.456C438.051 101.272 438.627 99.656 438.627 97.608ZM469.093 83.928C472.229 83.928 474.725 84.952 476.581 87C478.469 89.016 479.413 91.8 479.413 95.352V111H471.253V96.456C471.253 94.664 470.789 93.272 469.861 92.28C468.933 91.288 467.685 90.792 466.117 90.792C464.549 90.792 463.301 91.288 462.373 92.28C461.445 93.272 460.981 94.664 460.981 96.456V111H452.773V84.216H460.981V87.768C461.813 86.584 462.933 85.656 464.341 84.984C465.749 84.28 467.333 83.928 469.093 83.928ZM0.344 169.56C0.344 166.808 0.856 164.392 1.88 162.312C2.936 160.232 4.36 158.632 6.152 157.512C7.944 156.392 9.944 155.832 12.152 155.832C13.912 155.832 15.512 156.2 16.952 156.936C18.424 157.672 19.576 158.664 20.408 159.912V147.48H28.616V183H20.408V179.16C19.64 180.44 18.536 181.464 17.096 182.232C15.688 183 14.04 183.384 12.152 183.384C9.944 183.384 7.944 182.824 6.152 181.704C4.36 180.552 2.936 178.936 1.88 176.856C0.856 174.744 0.344 172.312 0.344 169.56ZM20.408 169.608C20.408 167.56 19.832 165.944 18.68 164.76C17.56 163.576 16.184 162.984 14.552 162.984C12.92 162.984 11.528 163.576 10.376 164.76C9.256 165.912 8.696 167.512 8.696 169.56C8.696 171.608 9.256 173.24 10.376 174.456C11.528 175.64 12.92 176.232 14.552 176.232C16.184 176.232 17.56 175.64 18.68 174.456C19.832 173.272 20.408 171.656 20.408 169.608ZM59.8021 169.176C59.8021 169.944 59.7541 170.744 59.6581 171.576H41.0821C41.2101 173.24 41.7381 174.52 42.6661 175.416C43.6261 176.28 44.7941 176.712 46.1701 176.712C48.2181 176.712 49.6421 175.848 50.4421 174.12H59.1781C58.7301 175.88 57.9141 177.464 56.7301 178.872C55.5781 180.28 54.1221 181.384 52.3621 182.184C50.6021 182.984 48.6341 183.384 46.4581 183.384C43.8341 183.384 41.4981 182.824 39.4501 181.704C37.4021 180.584 35.8021 178.984 34.6501 176.904C33.4981 174.824 32.9221 172.392 32.9221 169.608C32.9221 166.824 33.4821 164.392 34.6021 162.312C35.7541 160.232 37.3541 158.632 39.4021 157.512C41.4501 156.392 43.8021 155.832 46.4581 155.832C49.0501 155.832 51.3541 156.376 53.3701 157.464C55.3861 158.552 56.9541 160.104 58.0741 162.12C59.2261 164.136 59.8021 166.488 59.8021 169.176ZM51.4021 167.016C51.4021 165.608 50.9221 164.488 49.9621 163.656C49.0021 162.824 47.8021 162.408 46.3621 162.408C44.9861 162.408 43.8181 162.808 42.8581 163.608C41.9301 164.408 41.3541 165.544 41.1301 167.016H51.4021ZM80.4523 155.928C83.5883 155.928 86.0843 156.952 87.9403 159C89.8283 161.016 90.7723 163.8 90.7723 167.352V183H82.6123V168.456C82.6123 166.664 82.1483 165.272 81.2203 164.28C80.2923 163.288 79.0443 162.792 77.4763 162.792C75.9083 162.792 74.6603 163.288 73.7323 164.28C72.8043 165.272 72.3403 166.664 72.3403 168.456V183H64.1323V156.216H72.3403V159.768C73.1723 158.584 74.2923 157.656 75.7003 156.984C77.1083 156.28 78.6923 155.928 80.4523 155.928ZM106.652 155.832C108.54 155.832 110.188 156.216 111.596 156.984C113.036 157.752 114.14 158.76 114.908 160.008V156.216H123.116V182.952C123.116 185.416 122.62 187.64 121.628 189.624C120.668 191.64 119.18 193.24 117.164 194.424C115.18 195.608 112.7 196.2 109.724 196.2C105.756 196.2 102.54 195.256 100.076 193.368C97.612 191.512 96.204 188.984 95.852 185.784H103.964C104.22 186.808 104.828 187.608 105.788 188.184C106.748 188.792 107.932 189.096 109.34 189.096C111.036 189.096 112.38 188.6 113.372 187.608C114.396 186.648 114.908 185.096 114.908 182.952V179.16C114.108 180.408 113.004 181.432 111.596 182.232C110.188 183 108.54 183.384 106.652 183.384C104.444 183.384 102.444 182.824 100.652 181.704C98.86 180.552 97.436 178.936 96.38 176.856C95.356 174.744 94.844 172.312 94.844 169.56C94.844 166.808 95.356 164.392 96.38 162.312C97.436 160.232 98.86 158.632 100.652 157.512C102.444 156.392 104.444 155.832 106.652 155.832ZM114.908 169.608C114.908 167.56 114.332 165.944 113.18 164.76C112.06 163.576 110.684 162.984 109.052 162.984C107.42 162.984 106.028 163.576 104.876 164.76C103.756 165.912 103.196 167.512 103.196 169.56C103.196 171.608 103.756 173.24 104.876 174.456C106.028 175.64 107.42 176.232 109.052 176.232C110.684 176.232 112.06 175.64 113.18 174.456C114.332 173.272 114.908 171.656 114.908 169.608ZM127.422 169.56C127.422 166.808 127.934 164.392 128.958 162.312C130.014 160.232 131.438 158.632 133.23 157.512C135.022 156.392 137.022 155.832 139.23 155.832C141.118 155.832 142.766 156.216 144.174 156.984C145.614 157.752 146.718 158.76 147.486 160.008V156.216H155.694V183H147.486V179.208C146.686 180.456 145.566 181.464 144.126 182.232C142.718 183 141.07 183.384 139.182 183.384C137.006 183.384 135.022 182.824 133.23 181.704C131.438 180.552 130.014 178.936 128.958 176.856C127.934 174.744 127.422 172.312 127.422 169.56ZM147.486 169.608C147.486 167.56 146.91 165.944 145.758 164.76C144.638 163.576 143.262 162.984 141.63 162.984C139.998 162.984 138.606 163.576 137.454 164.76C136.334 165.912 135.774 167.512 135.774 169.56C135.774 171.608 136.334 173.24 137.454 174.456C138.606 175.64 139.998 176.232 141.63 176.232C143.262 176.232 144.638 175.64 145.758 174.456C146.91 173.272 147.486 171.656 147.486 169.608ZM177.952 155.928C181.088 155.928 183.584 156.952 185.44 159C187.328 161.016 188.272 163.8 188.272 167.352V183H180.112V168.456C180.112 166.664 179.648 165.272 178.72 164.28C177.792 163.288 176.544 162.792 174.976 162.792C173.408 162.792 172.16 163.288 171.232 164.28C170.304 165.272 169.84 166.664 169.84 168.456V183H161.632V156.216H169.84V159.768C170.672 158.584 171.792 157.656 173.2 156.984C174.608 156.28 176.192 155.928 177.952 155.928ZM211.396 162.168H202.996L208.372 149.304H213.892L211.396 162.168ZM222.292 162.168H213.94L219.316 149.304H224.788L222.292 162.168ZM238.325 176.664H249.077V183H230.117V149.304H238.325V176.664ZM257.12 153.432C255.68 153.432 254.496 153.016 253.568 152.184C252.672 151.32 252.224 150.264 252.224 149.016C252.224 147.736 252.672 146.68 253.568 145.848C254.496 144.984 255.68 144.552 257.12 144.552C258.528 144.552 259.68 144.984 260.576 145.848C261.504 146.68 261.968 147.736 261.968 149.016C261.968 150.264 261.504 151.32 260.576 152.184C259.68 153.016 258.528 153.432 257.12 153.432ZM261.2 156.216V183H252.992V156.216H261.2ZM275.356 160.008C276.124 158.76 277.228 157.752 278.668 156.984C280.108 156.216 281.756 155.832 283.612 155.832C285.82 155.832 287.82 156.392 289.612 157.512C291.404 158.632 292.812 160.232 293.836 162.312C294.892 164.392 295.42 166.808 295.42 169.56C295.42 172.312 294.892 174.744 293.836 176.856C292.812 178.936 291.404 180.552 289.612 181.704C287.82 182.824 285.82 183.384 283.612 183.384C281.724 183.384 280.076 183.016 278.668 182.28C277.26 181.512 276.156 180.504 275.356 179.256V183H267.148V147.48H275.356V160.008ZM287.068 169.56C287.068 167.512 286.492 165.912 285.34 164.76C284.22 163.576 282.828 162.984 281.164 162.984C279.532 162.984 278.14 163.576 276.988 164.76C275.868 165.944 275.308 167.56 275.308 169.608C275.308 171.656 275.868 173.272 276.988 174.456C278.14 175.64 279.532 176.232 281.164 176.232C282.796 176.232 284.188 175.64 285.34 174.456C286.492 173.24 287.068 171.608 287.068 169.56ZM326.174 156.216V183H317.966V179.352C317.134 180.536 315.998 181.496 314.558 182.232C313.15 182.936 311.582 183.288 309.854 183.288C307.806 183.288 305.998 182.84 304.43 181.944C302.862 181.016 301.646 179.688 300.782 177.96C299.918 176.232 299.486 174.2 299.486 171.864V156.216H307.646V170.76C307.646 172.552 308.11 173.944 309.038 174.936C309.966 175.928 311.214 176.424 312.782 176.424C314.382 176.424 315.646 175.928 316.574 174.936C317.502 173.944 317.966 172.552 317.966 170.76V156.216H326.174ZM340.278 160.68C341.238 159.208 342.438 158.056 343.878 157.224C345.318 156.36 346.918 155.928 348.678 155.928V164.616H346.422C344.374 164.616 342.838 165.064 341.814 165.96C340.79 166.824 340.278 168.36 340.278 170.568V183H332.07V156.216H340.278V160.68ZM356.729 153.432C355.289 153.432 354.105 153.016 353.177 152.184C352.281 151.32 351.833 150.264 351.833 149.016C351.833 147.736 352.281 146.68 353.177 145.848C354.105 144.984 355.289 144.552 356.729 144.552C358.137 144.552 359.289 144.984 360.185 145.848C361.113 146.68 361.577 147.736 361.577 149.016C361.577 150.264 361.113 151.32 360.185 152.184C359.289 153.016 358.137 153.432 356.729 153.432ZM360.809 156.216V183H352.601V156.216H360.809ZM365.125 169.56C365.125 166.808 365.637 164.392 366.661 162.312C367.717 160.232 369.141 158.632 370.933 157.512C372.725 156.392 374.725 155.832 376.933 155.832C378.821 155.832 380.469 156.216 381.877 156.984C383.317 157.752 384.421 158.76 385.189 160.008V156.216H393.397V183H385.189V179.208C384.389 180.456 383.269 181.464 381.829 182.232C380.421 183 378.773 183.384 376.885 183.384C374.709 183.384 372.725 182.824 370.933 181.704C369.141 180.552 367.717 178.936 366.661 176.856C365.637 174.744 365.125 172.312 365.125 169.56ZM385.189 169.608C385.189 167.56 384.613 165.944 383.461 164.76C382.341 163.576 380.965 162.984 379.333 162.984C377.701 162.984 376.309 163.576 375.157 164.76C374.037 165.912 373.477 167.512 373.477 169.56C373.477 171.608 374.037 173.24 375.157 174.456C376.309 175.64 377.701 176.232 379.333 176.232C380.965 176.232 382.341 175.64 383.461 174.456C384.613 173.272 385.189 171.656 385.189 169.608ZM401.207 149.304H409.607L404.231 162.168H398.711L401.207 149.304ZM412.103 149.304H420.503L415.127 162.168H409.607L412.103 149.304Z" fill="#080808"/>
</svg>
