<svg width="45" height="45" viewBox="0 0 45 45" fill="none" xmlns="http://www.w3.org/2000/svg">
<path d="M15.75 21.9375C14.1975 21.9375 12.9375 23.1975 12.9375 24.75C12.9375 26.3025 14.1975 27.5625 15.75 27.5625C17.3025 27.5625 18.5625 26.3025 18.5625 24.75C18.5625 23.1975 17.3025 21.9375 15.75 21.9375ZM29.25 21.9375C27.6975 21.9375 26.4375 23.1975 26.4375 24.75C26.4375 26.3025 27.6975 27.5625 29.25 27.5625C30.8025 27.5625 32.0625 26.3025 32.0625 24.75C32.0625 23.1975 30.8025 21.9375 29.25 21.9375ZM22.5 0C10.08 0 0 10.08 0 22.5C0 34.92 10.08 45 22.5 45C34.92 45 45 34.92 45 22.5C45 10.08 34.92 0 22.5 0ZM22.5 40.5C12.5775 40.5 4.5 32.4225 4.5 22.5C4.5 21.8475 4.545 21.195 4.6125 20.565C9.9225 18.2025 14.13 13.86 16.335 8.4825C20.4075 14.2425 27.1125 18 34.695 18C36.45 18 38.1375 17.7975 39.7575 17.415C40.23 19.0125 40.5 20.7225 40.5 22.5C40.5 32.4225 32.4225 40.5 22.5 40.5Z" fill="black"/>
</svg>
