<svg width="45" height="22" viewBox="0 0 45 22" fill="none" xmlns="http://www.w3.org/2000/svg">
<path d="M10.3567 12.1429C9.43845 12.1429 8.5408 12.4152 7.77729 12.9253C7.01378 13.4355 6.41869 14.1606 6.06729 15.009C5.71588 15.8574 5.62393 16.7909 5.80308 17.6915C5.98223 18.5921 6.42441 19.4194 7.07373 20.0687C7.72304 20.718 8.55032 21.1602 9.45095 21.3394C10.3516 21.5185 11.2851 21.4266 12.1335 21.0752C12.9818 20.7238 13.7069 20.1287 14.2171 19.3652C14.7273 18.6017 14.9996 17.704 14.9996 16.7857C14.9982 15.5548 14.5086 14.3747 13.6382 13.5043C12.7678 12.6339 11.5877 12.1443 10.3567 12.1429ZM10.3567 18.9286C9.9329 18.9286 9.51861 18.8029 9.16621 18.5675C8.81382 18.332 8.53917 17.9973 8.37698 17.6058C8.21479 17.2142 8.17236 16.7834 8.25504 16.3677C8.33772 15.952 8.54181 15.5702 8.84149 15.2705C9.14118 14.9708 9.523 14.7667 9.93867 14.6841C10.3543 14.6014 10.7852 14.6438 11.1768 14.806C11.5683 14.9682 11.903 15.2428 12.1384 15.5952C12.3739 15.9476 12.4996 16.3619 12.4996 16.7857C12.4996 17.3541 12.2738 17.8991 11.8719 18.301C11.4701 18.7028 10.925 18.9286 10.3567 18.9286Z" fill="black"/>
<path d="M36.0716 12.1429C35.1533 12.1429 34.2556 12.4152 33.4921 12.9253C32.7286 13.4355 32.1335 14.1606 31.7821 15.009C31.4307 15.8574 31.3388 16.7909 31.5179 17.6915C31.6971 18.5921 32.1393 19.4194 32.7886 20.0687C33.4379 20.718 34.2652 21.1602 35.1658 21.3394C36.0664 21.5185 36.9999 21.4266 37.8483 21.0752C38.6967 20.7238 39.4218 20.1287 39.932 19.3652C40.4421 18.6017 40.7144 17.704 40.7144 16.7857C40.713 15.5548 40.2234 14.3747 39.353 13.5043C38.4826 12.6339 37.3025 12.1443 36.0716 12.1429ZM36.0716 18.9286C35.6477 18.9286 35.2335 18.8029 34.8811 18.5675C34.5287 18.332 34.254 17.9973 34.0918 17.6058C33.9296 17.2142 33.8872 16.7834 33.9699 16.3677C34.0526 15.952 34.2567 15.5702 34.5563 15.2705C34.856 14.9708 35.2378 14.7667 35.6535 14.6841C36.0692 14.6014 36.5 14.6438 36.8916 14.806C37.2832 14.9682 37.6178 15.2428 37.8533 15.5952C38.0887 15.9476 38.2144 16.3619 38.2144 16.7857C38.2144 17.3541 37.9887 17.8991 37.5868 18.301C37.1849 18.7028 36.6399 18.9286 36.0716 18.9286Z" fill="black"/>
<path d="M42.2678 8.30715L33.9285 6.78572L26.829 0.8951C26.1254 0.317122 25.2432 0.000815326 24.3327 1.09664e-05H13.8732C13.2838 -0.00138503 12.7017 0.130517 12.1704 0.385851C11.6392 0.641184 11.1726 1.01334 10.8054 1.47447L6.27071 6.78572H3.21428C2.36209 6.78666 1.54508 7.12561 0.942486 7.7282C0.339896 8.33079 0.000945304 9.14781 0 10V13.9286C0.00115799 14.9701 0.415431 15.9687 1.15193 16.7052C1.88843 17.4417 2.887 17.856 3.92857 17.8571H4.74509C4.5866 17.0306 4.61265 16.1792 4.82137 15.3639C5.03009 14.5486 5.41633 13.7895 5.95248 13.1407C6.48863 12.492 7.16146 11.9697 7.92289 11.6112C8.68431 11.2527 9.51553 11.0668 10.3571 11.0668C11.1987 11.0668 12.03 11.2527 12.7914 11.6112C13.5528 11.9697 14.2256 12.492 14.7618 13.1407C15.2979 13.7895 15.6842 14.5486 15.8929 15.3639C16.1016 16.1792 16.1277 17.0306 15.9692 17.8571H30.4593C30.3009 17.0306 30.3269 16.1792 30.5356 15.3639C30.7444 14.5486 31.1306 13.7895 31.6667 13.1407C32.2029 12.492 32.8757 11.9697 33.6371 11.6112C34.3986 11.2527 35.2298 11.0668 36.0714 11.0668C36.913 11.0668 37.7442 11.2527 38.5056 11.6112C39.2671 11.9697 39.9399 12.492 40.476 13.1407C41.0122 13.7895 41.3984 14.5486 41.6072 15.3639C41.8159 16.1792 41.8419 17.0306 41.6834 17.8571H41.7857C42.6379 17.8562 43.4549 17.5172 44.0575 16.9147C44.6601 16.3121 44.999 15.495 45 14.6429V11.485C45.0038 10.715 44.7295 9.96954 44.2276 9.38567C43.7256 8.8018 43.0297 8.41881 42.2678 8.30715ZM15.7143 5.71429C15.7143 5.99845 15.6014 6.27097 15.4005 6.4719C15.1995 6.67284 14.927 6.78572 14.6428 6.78572H9.93258C9.83015 6.78578 9.72985 6.75647 9.64356 6.70126C9.55728 6.64606 9.48863 6.56727 9.44575 6.47425C9.40288 6.38122 9.38757 6.27785 9.40165 6.17639C9.41572 6.07493 9.45859 5.97963 9.52517 5.90179L12.6427 2.25001C12.7433 2.13233 12.8683 2.03788 13.0089 1.97314C13.1496 1.9084 13.3026 1.87492 13.4575 1.87501H14.6428C14.927 1.87501 15.1995 1.98789 15.4005 2.18882C15.6014 2.38975 15.7143 2.66228 15.7143 2.94644V5.71429ZM21.0714 10.7143H19.6428C19.3587 10.7143 19.0862 10.6014 18.8852 10.4005C18.6843 10.1995 18.5714 9.92702 18.5714 9.64286C18.5714 9.3587 18.6843 9.08618 18.8852 8.88525C19.0862 8.68431 19.3587 8.57143 19.6428 8.57143H21.0714C21.3556 8.57143 21.6281 8.68431 21.829 8.88525C22.03 9.08618 22.1428 9.3587 22.1428 9.64286C22.1428 9.92702 22.03 10.1995 21.829 10.4005C21.6281 10.6014 21.3556 10.7143 21.0714 10.7143ZM29.507 6.81197L19.2832 6.78822C18.9995 6.78756 18.7276 6.67438 18.5272 6.47352C18.3268 6.27266 18.2143 6.00052 18.2143 5.71679V2.94644C18.2143 2.66228 18.3272 2.38975 18.5281 2.18882C18.729 1.98789 19.0015 1.87501 19.2857 1.87501H24.4239C24.6647 1.87503 24.8985 1.95618 25.0876 2.10537L29.8401 5.85536C29.9277 5.92434 29.9916 6.01894 30.0228 6.12596C30.0541 6.23298 30.0512 6.34709 30.0146 6.45239C29.9779 6.55769 29.9093 6.64893 29.8183 6.71339C29.7274 6.77784 29.6185 6.81231 29.507 6.81197Z" fill="black"/>
</svg>
