<svg width="45" height="31" viewBox="0 0 45 31" fill="none" xmlns="http://www.w3.org/2000/svg">
<path d="M4.46094 26.3604C5.04752 28.511 7.01706 30.0971 9.351 30.0971C11.6851 30.0971 13.6546 28.5109 14.2412 26.3604H4.46094Z" fill="black"/>
<path d="M33.2715 26.3604C33.8581 28.511 35.8275 30.0971 38.1615 30.0971C40.4956 30.0971 42.465 28.5109 43.0516 26.3604H33.2715Z" fill="black"/>
<path d="M41.513 13.745L35.7629 9.6707L35.769 6.26634C36.0397 6.46972 36.3749 6.5918 36.7395 6.5918C37.6334 6.5918 38.358 5.86714 38.358 4.97329V1.61851C38.358 0.724659 37.6334 0 36.7395 0C36.2613 0 35.8329 0.208652 35.5367 0.538418C35.2225 0.305332 34.8347 0.16585 34.4134 0.16585C33.5187 0.16585 32.6967 0.453955 32.0298 0.939024L25.6412 2.84942C24.7848 3.10544 24.2983 4.00729 24.5544 4.86369C24.7642 5.5655 25.4075 6.01893 26.1043 6.01893C26.2579 6.01893 26.414 5.99696 26.5687 5.95064L30.371 4.81368L30.3007 12.5391L29.2684 15.4782C27.8843 18.7941 24.6431 20.9533 21.05 20.9534H18.4374C17.8475 18.3693 18.3081 15.6216 19.7749 13.3485H5.29242C2.19542 14.5565 0 17.5664 0 21.091V23.3798C0 23.9736 0.338291 24.4874 0.832149 24.7418H29.6967C30.1057 20.4308 33.7453 17.0467 38.1615 17.0467C39.8532 17.0467 41.4299 17.5453 42.756 18.4003L42.7996 18.3728C43.5218 16.7201 42.9846 14.7876 41.513 13.745Z" fill="black"/>
<path d="M20.1686 8.89349H10.1644C9.27056 8.89349 8.5459 9.61815 8.5459 10.512C8.5459 10.9982 8.76141 11.4331 9.10075 11.7299H21.2322C21.5716 11.4333 21.7872 10.9982 21.7872 10.512C21.7872 9.61815 21.0625 8.89349 20.1686 8.89349Z" fill="black"/>
<path d="M38.1618 18.6653C34.6387 18.6653 31.7249 21.3249 31.3232 24.7419H45.0003C44.5985 21.3249 41.6848 18.6653 38.1618 18.6653Z" fill="black"/>
</svg>
